<svg width="527" height="621" viewBox="0 0 527 621" fill="none" xmlns="http://www.w3.org/2000/svg">
<g clip-path="url(#clip0_38_6760)">
<path d="M375.14 494.85C379.23 492.49 379.23 484.83 375.14 477.75C371.05 470.67 364.42 466.84 360.33 469.2L362.28 468.03C366.37 465.67 373 469.5 377.09 476.58C381.18 483.66 381.18 491.32 377.09 493.68L375.14 494.85Z" fill="white"/>
<path d="M375.14 494.85C371.05 497.21 364.42 493.38 360.33 486.3C356.24 479.22 356.24 471.56 360.33 469.2C364.42 466.84 371.05 470.67 375.14 477.75C379.23 484.83 379.23 492.49 375.14 494.85Z" fill="#D9EEFA"/>
<path d="M314.23 527.55L214.78 584.96C216.65 583.88 217.58 581.57 217.52 578.7L228.6 572.28C228.56 572.32 228.51 572.35 228.47 572.38L312.84 523.54C313.68 523.05 314.23 522.2 314.52 521.14C314.76 520.24 314.8 519.19 314.65 518.06C314.55 517.21 314.33 516.32 314.02 515.42C313.73 514.62 313.37 513.83 312.91 513.05C312.9 513.01 312.87 512.95 312.84 512.9C312.41 512.16 311.96 511.49 311.46 510.88C310.86 510.14 310.22 509.5 309.56 508.96C308.71 508.25 307.82 507.74 306.98 507.44C305.74 507.01 304.58 507.03 303.64 507.57L208.34 562.74C205.88 561.27 203.41 560.9 201.54 561.99L300.99 504.57C303.2 503.3 306.22 504.07 309.09 506.23C309.78 506.75 310.47 507.35 311.12 508.05C311.72 508.67 312.3 509.35 312.83 510.08C313.33 510.76 313.81 511.46 314.24 512.23C314.7 513.04 315.09 513.82 315.42 514.6C315.79 515.43 316.08 516.26 316.32 517.07C316.59 517.98 316.77 518.9 316.87 519.77C317.25 523.32 316.41 526.29 314.23 527.55Z" fill="#D9EEFA"/>
<path d="M314.51 521.14C314.22 522.2 313.67 523.05 312.83 523.54L228.46 572.38C228.5 572.35 228.55 572.32 228.59 572.28L217.51 578.7C217.48 575.97 216.57 572.75 214.77 569.66C212.99 566.57 210.66 564.16 208.32 562.76L303.62 507.59C304.56 507.04 305.73 507.03 306.96 507.46C307.8 507.75 308.68 508.27 309.54 508.98C310.2 509.51 310.84 510.16 311.44 510.9C311.94 511.5 312.4 512.18 312.82 512.92C312.85 512.96 312.88 513.02 312.89 513.07C313.35 513.85 313.7 514.65 314 515.44C314.31 516.34 314.53 517.22 314.63 518.08C314.79 519.19 314.75 520.24 314.51 521.14Z" fill="white"/>
<path d="M314.64 518.06C314.79 519.19 314.74 520.24 314.51 521.14L265.88 549.17V543.16L314.01 515.42C314.32 516.32 314.54 517.2 314.64 518.06Z" fill="#9FC8E8"/>
<path d="M368.5 484V490.03L316.85 519.79C316.76 518.92 316.57 518.01 316.3 517.09C316.06 516.28 315.77 515.44 315.4 514.62L368.5 484Z" fill="#9FC8E8"/>
<path d="M311.45 510.88L263.28 538.65L258.07 535.64L306.98 507.45C307.82 507.74 308.7 508.26 309.56 508.97C310.21 509.5 310.84 510.15 311.45 510.88Z" fill="white"/>
<path d="M365.91 479.49L312.82 510.09C312.29 509.35 311.72 508.68 311.11 508.06C310.46 507.37 309.77 506.76 309.08 506.24L360.7 476.49L365.91 479.49Z" fill="white"/>
<path d="M312.83 512.9C312.86 512.94 312.89 513 312.9 513.05L265.87 540.15V534.13L309.54 508.97C310.2 509.5 310.84 510.15 311.44 510.89C311.95 511.49 312.4 512.17 312.83 512.9Z" fill="#9FC8E8"/>
<path d="M368.5 474.98V480.99L314.24 512.271C313.78 511.471 313.31 510.771 312.81 510.091C312.28 509.351 311.71 508.68 311.1 508.06L368.5 474.98Z" fill="#9FC8E8"/>
<path d="M314.64 518.06C314.79 519.19 314.74 520.24 314.51 521.14L271.08 546.17V543.16L314.64 518.06Z" fill="#9FC8E8"/>
<path d="M373.72 484V487L316.86 519.78C316.77 518.91 316.58 518 316.31 517.08L373.72 484Z" fill="#9FC8E8"/>
<path d="M314.01 515.42C314.32 516.32 314.54 517.2 314.64 518.06L271.08 543.16L265.88 540.15L312.91 513.05C313.36 513.83 313.71 514.63 314.01 515.42Z" fill="white"/>
<path d="M373.72 484L316.31 517.09C316.07 516.28 315.78 515.44 315.41 514.62C315.09 513.84 314.69 513.06 314.25 512.28L368.51 481L373.72 484Z" fill="white"/>
<path d="M306.97 507.45C307.81 507.74 308.69 508.26 309.55 508.97L265.88 534.13L263.28 532.63L306.97 507.45Z" fill="white"/>
<path d="M368.5 474.98L311.11 508.05C310.46 507.36 309.77 506.75 309.08 506.23L365.91 473.47L368.5 474.98Z" fill="white"/>
<path d="M271.08 546.17L265.88 543.16V549.17L263.27 547.67V541.66L258.06 538.65V535.64L263.27 538.65V532.64L265.88 534.13V540.15L271.08 543.16V546.17Z" fill="#D9EEFA"/>
<path d="M298.81 530.18C298.53 531.25 297.96 532.12 297.12 532.61L212.77 581.45C215.3 579.99 215.3 575.23 212.77 570.83C210.22 566.43 206.1 564.04 203.56 565.51L288 516.63C288.91 516.13 290.03 516.13 291.21 516.53C292.07 516.82 292.96 517.34 293.82 518.03C294.48 518.56 295.12 519.21 295.72 519.96C296.22 520.58 296.69 521.26 297.12 521.99C297.15 522.03 297.16 522.06 297.18 522.11C297.64 522.91 298.01 523.7 298.28 524.48C298.6 525.38 298.83 526.26 298.94 527.1C299.09 528.24 299.04 529.28 298.81 530.18Z" fill="#1AE1D6"/>
<path opacity="0.56" d="M314.51 521.14C314.22 522.2 313.67 523.05 312.83 523.54L291.6 535.92C291.64 535.89 291.69 535.86 291.73 535.82C294.15 534.27 294.1 529.6 291.6 525.29C289.07 520.89 284.94 518.5 282.39 519.97L303.62 507.59C304.56 507.04 305.73 507.03 306.96 507.46C307.8 507.75 308.68 508.27 309.54 508.98C310.2 509.51 310.84 510.16 311.44 510.9C311.94 511.5 312.4 512.18 312.82 512.92C312.85 512.96 312.88 513.02 312.89 513.07C313.35 513.85 313.7 514.65 314 515.44C314.31 516.34 314.53 517.22 314.63 518.08C314.79 519.19 314.75 520.24 314.51 521.14Z" fill="#CEFFF7"/>
<path d="M214.78 584.96C211.12 587.07 205.18 583.65 201.52 577.31C197.86 570.97 197.86 564.12 201.52 562C205.18 559.89 211.12 563.31 214.78 569.65C218.44 575.99 218.44 582.84 214.78 584.96Z" fill="#C1E3FB"/>
<path d="M229.41 560.44L228.14 561.18C226.53 558.4 224.43 556.11 222.19 554.73C222.06 554.63 221.91 554.54 221.78 554.46C219.51 553.15 217.42 552.91 215.89 553.8C215.85 553.74 219.06 551.89 219.06 551.89C220.17 552.05 221.33 552.49 222.52 553.19C222.89 553.41 223.26 553.65 223.62 553.91C225.81 555.43 227.84 557.73 229.41 560.44Z" fill="#C1E3FB"/>
<path d="M233.93 543.29C235.04 543.47 236.2 543.9 237.41 544.59C237.78 544.8 238.13 545.03 238.49 545.28C240.68 546.82 242.72 549.11 244.31 551.85L243.03 552.59C241.42 549.79 239.3 547.54 237.08 546.11C236.95 546.02 236.81 545.93 236.68 545.86C234.4 544.57 232.32 544.33 230.79 545.21C230.73 545.14 233.93 543.29 233.93 543.29Z" fill="#C1E3FB"/>
<path d="M259.18 543.26L257.91 544C256.26 541.14 254.08 538.87 251.9 537.52C249.62 536.08 247.32 535.65 245.65 536.61C245.61 536.55 248.8 534.69 248.8 534.69C250.27 534.91 251.84 535.6 253.36 536.68C255.48 538.18 257.54 540.42 259.18 543.26Z" fill="#C1E3FB"/>
<path d="M274.07 534.66L272.79 535.4C271.14 532.53 268.96 530.26 266.78 528.9C264.48 527.47 262.2 527.06 260.53 528.02C260.49 527.95 263.68 526.1 263.68 526.1C265.15 526.32 266.71 527 268.23 528.06C270.36 529.55 272.42 531.82 274.07 534.66Z" fill="#C1E3FB"/>
<path d="M198.34 583.23C199.32 582.67 199.32 580.83 198.34 579.14C197.36 577.45 195.78 576.53 194.8 577.09L206.38 570.4C207.36 569.84 208.94 570.75 209.92 572.45C210.9 574.14 210.9 575.98 209.92 576.54L198.34 583.23Z" fill="#D9EEFA"/>
<path d="M206.71 580.21C206.71 580.21 206.67 580.23 206.58 580.27C205.33 580.86 193.84 586.06 191.6 586.91C189.2 587.82 186.74 588.8 186.74 588.8L184.5 584.92C184.5 584.92 186.62 582.95 188.56 581.19C190.33 579.6 200.07 573.15 201.69 572.07C201.84 571.97 201.93 571.91 201.93 571.91C203.26 571.14 205.39 572.38 206.72 574.68C208.04 576.97 208.04 579.44 206.71 580.21Z" fill="#9FC8E8"/>
<path d="M186.74 586.21C187.36 587.28 187.36 588.44 186.74 588.79C186.12 589.15 185.12 588.57 184.5 587.5C183.88 586.43 183.88 585.27 184.5 584.92C185.12 584.56 186.12 585.14 186.74 586.21Z" fill="#9FC8E8"/>
<path d="M125.86 621.04L134.29 616.86L185.77 587.13L185.42 586.64L125.86 621.04Z" fill="#9FC8E8"/>
<path d="M370.83 595.65L347.95 582.44C342.62 579.36 342.62 574.37 347.95 571.29L424.26 527.23C429.59 524.15 438.24 524.15 443.57 527.23L466.45 540.44C471.78 543.52 471.78 548.51 466.45 551.59L390.14 595.65C384.81 598.73 376.16 598.73 370.83 595.65Z" fill="#9FC8E8"/>
<path d="M370.83 594.06L347.95 580.85C342.62 577.77 342.62 572.78 347.95 569.7L424.26 525.64C429.59 522.56 438.24 522.56 443.57 525.64L466.45 538.85C471.78 541.93 471.78 546.92 466.45 550L390.14 594.06C384.81 597.14 376.16 597.14 370.83 594.06Z" fill="#C1E3FB"/>
<path opacity="0.56" d="M402.53 575.44L378.46 561.54C375.95 560.09 375.95 557.75 378.46 556.3L402.53 542.4C405.04 540.95 409.1 540.95 411.61 542.4L435.68 556.3C438.19 557.75 438.19 560.09 435.68 561.54L411.61 575.44C409.1 576.89 405.04 576.89 402.53 575.44Z" fill="#CEFFF7"/>
<path d="M402.89 573.16L380.01 559.95C377.63 558.57 377.63 556.35 380.01 554.97L402.89 541.76C405.27 540.39 409.13 540.39 411.52 541.76L434.4 554.97C436.78 556.35 436.78 558.57 434.4 559.95L411.52 573.16C409.13 574.54 405.27 574.54 402.89 573.16Z" fill="#FBFFFF"/>
<path d="M437.66 533.12C437.66 534.13 436.24 534.96 434.48 534.96C432.72 534.96 431.3 534.14 431.3 533.12C431.3 532.1 432.72 531.28 434.48 531.28C436.24 531.28 437.66 532.1 437.66 533.12Z" fill="#9FC8E8"/>
<path d="M456.22 543.83C456.22 544.84 454.8 545.67 453.04 545.67C451.28 545.67 449.86 544.85 449.86 543.83C449.86 542.81 451.28 541.99 453.04 541.99C454.8 542 456.22 542.82 456.22 543.83Z" fill="#9FC8E8"/>
<path d="M437.38 544C437.38 545.01 435.96 545.84 434.2 545.84C432.44 545.84 431.02 545.02 431.02 544C431.02 542.99 432.44 542.16 434.2 542.16C435.96 542.16 437.38 542.98 437.38 544Z" fill="#9FC8E8"/>
<path d="M377.52 585.47C377.52 584.46 378.94 583.63 380.7 583.63C382.46 583.63 383.88 584.45 383.88 585.47C383.88 586.49 382.46 587.31 380.7 587.31C378.95 587.31 377.52 586.48 377.52 585.47Z" fill="#9FC8E8"/>
<path d="M358.96 574.75C358.96 573.74 360.38 572.91 362.14 572.91C363.9 572.91 365.32 573.73 365.32 574.75C365.32 575.77 363.9 576.59 362.14 576.59C360.38 576.59 358.96 575.77 358.96 574.75Z" fill="#9FC8E8"/>
<path d="M377.81 574.59C377.81 573.58 379.23 572.75 380.99 572.75C382.75 572.75 384.17 573.57 384.17 574.59C384.17 575.61 382.75 576.43 380.99 576.43C379.23 576.43 377.81 575.6 377.81 574.59Z" fill="#9FC8E8"/>
<path d="M205.06 28.1201C204.63 29.0901 204.24 30.1501 203.93 31.1601C203.27 33.1501 202.84 35.1401 202.64 37.1301L191.33 30.4901L201.74 26.1201L205.06 28.1201Z" fill="#96BFDE"/>
<path d="M255.27 57.1706C254.84 58.1106 254.45 59.1206 254.1 60.0906C253.4 62.0406 252.89 64.0306 252.62 65.9806L210.43 41.6506C210.31 40.9106 210.27 40.2506 210.27 39.7406C210.27 38.2606 210.47 36.6906 210.86 35.1406C211.11 34.1206 211.44 33.1106 211.87 32.1006L255.27 57.1706Z" fill="#96BFDE"/>
<path d="M305.57 86.1803C305.1 87.1503 304.67 88.1303 304.32 89.1003C303.58 91.0103 303.03 92.9603 302.68 94.8703L260.18 70.3503C260.14 70.0803 260.14 69.8003 260.14 69.6103C260.14 67.8603 260.45 65.9803 261 64.1103C261.27 63.1003 261.66 62.0803 262.09 61.0703L305.57 86.1803Z" fill="#96BFDE"/>
<path d="M355.86 115.22C355.35 116.16 354.91 117.14 354.53 118.11C353.8 120 353.13 121.89 352.74 123.8L310.05 99.1601C310.09 97.2101 310.48 95.1401 311.18 93.0801C311.49 92.0701 311.88 91.0901 312.35 90.0801L355.86 115.22Z" fill="#96BFDE"/>
<path d="M456.45 173.28C455.94 174.22 455.44 175.15 455.01 176.13C454.15 177.92 453.45 179.76 452.94 181.63L409.94 156.83C410.21 154.92 410.76 152.97 411.54 151.02C411.93 150.05 412.4 149.07 412.91 148.13L456.45 173.28Z" fill="#96BFDE"/>
<path d="M527 407.79L516.6 412.19L501.25 209.53L459.97 185.72C460.32 183.81 460.99 181.92 461.8 180.03C462.21 179.07 462.7 178.12 463.2 177.18L511.66 205.17L527 407.79Z" fill="#96BFDE"/>
<path d="M516.6 412.19L388.89 212.15C388.85 212.15 385.85 209.5 385.85 209.5C385.85 209.46 353.8 180.88 353.8 180.88C353.76 180.88 312.32 143.92 312.32 143.92C312.28 143.92 277.23 112.65 277.23 112.65C277.19 112.65 274.03 109.84 274.03 109.84C274.03 109.8 191.33 30.4901 191.33 30.4901L202.64 37.1301C202.84 35.1401 203.26 33.1501 203.93 31.1601C204.24 30.1501 204.63 29.0901 205.06 28.1201L211.88 32.1001C211.45 33.1101 211.12 34.1201 210.87 35.1401C210.49 36.6901 210.28 38.2601 210.28 39.7401C210.28 40.2501 210.32 40.9101 210.44 41.6101C210.44 41.6501 252.63 65.9801 252.63 65.9801C252.9 64.0301 253.41 62.0401 254.11 60.0901C254.46 59.1101 254.85 58.1001 255.28 57.1701L262.1 61.0701C261.67 62.0801 261.28 63.1001 261.01 64.1101C260.46 65.9801 260.15 67.8501 260.15 69.6101C260.15 69.8001 260.15 70.0801 260.19 70.3501L302.69 94.8701C303.04 92.9601 303.59 91.0101 304.33 89.1001C304.68 88.1301 305.11 87.1501 305.58 86.1801L312.36 90.0801C311.89 91.0901 311.5 92.0701 311.19 93.0801C310.49 95.1501 310.1 97.2101 310.06 99.1601L352.75 123.8C353.14 121.89 353.81 120 354.54 118.11C354.91 117.14 355.36 116.16 355.87 115.22L362.61 119.12C362.1 120.09 361.71 121.07 361.36 122.04C360.58 124.03 360.11 126.06 360 127.97L402.85 152.69C403.28 150.78 403.94 148.91 404.76 147.08C405.19 146.14 405.66 145.21 406.16 144.27L412.91 148.13C412.4 149.07 411.94 150.04 411.54 151.02C410.76 152.97 410.22 154.92 409.94 156.83L452.94 181.63C453.45 179.76 454.15 177.93 455.01 176.13C455.44 175.16 455.95 174.22 456.45 173.28L463.19 177.18C462.68 178.12 462.2 179.06 461.79 180.03C460.98 181.92 460.31 183.81 459.96 185.68C459.96 185.72 501.24 209.53 501.24 209.53L516.6 412.19Z" fill="#96BFDE"/>
<path d="M516.6 412.19L208.64 159.86L175.34 202.49L429.21 462.81L516.6 412.19Z" fill="#BBCEE4"/>
<path d="M516.6 412.19L329.84 307.31C275.27 321.8 378.59 258 378.59 258C378.55 257.96 250.71 184.16 250.71 184.16C250.67 184.16 212.7 162.21 212.7 162.21C212.66 162.21 208.64 159.87 208.64 159.87L205.6 147.79C205.6 147.75 204.94 145.14 204.94 145.14C204.94 145.1 204.28 142.53 204.28 142.53C204.28 142.49 193.21 98.2798 193.21 98.2798C193.21 98.2398 189 81.5898 189 81.5898C189 81.5498 187.21 74.2998 187.21 74.2998C187.21 74.2598 191.34 30.5098 191.34 30.5098L210.45 41.6298C210.45 41.6698 302.7 94.8898 302.7 94.8898C302.7 94.9298 452.96 181.64 452.96 181.64C452.96 181.68 459.98 185.69 459.98 185.69C459.98 185.73 501.26 209.54 501.26 209.54L516.6 412.19Z" fill="#6F9ED4"/>
<path d="M406.16 144.27C405.65 145.21 405.19 146.14 404.76 147.08C403.94 148.91 403.28 150.78 402.85 152.69L360 127.97C360.12 126.06 360.58 124.03 361.36 122.04C361.71 121.07 362.1 120.09 362.61 119.12L406.16 144.27Z" fill="#96BFDE"/>
<path d="M504.44 222.28L475.63 314.02C475.63 314.06 429.21 462.81 429.21 462.81L420.48 467.68L442.49 392.75C442.45 392.67 412.39 349.59 412.39 349.59C412.39 349.55 409.78 345.85 409.78 345.85C409.74 345.81 400.23 332.13 400.23 332.13C400.23 332.09 369.27 287.68 369.27 287.68C369.27 287.64 360.46 275.01 360.46 275.01C360.42 274.97 335.51 239.18 335.51 239.18C335.47 239.18 332.66 235.16 332.66 235.16C332.66 235.12 316.32 211.69 316.32 211.69C316.32 211.65 311.06 204.17 311.06 204.17C311.02 204.13 301.7 190.72 301.7 190.72C301.7 190.68 267.94 142.22 267.94 142.22C267.9 142.22 266.97 140.86 266.97 140.86C266.97 140.82 266.5 140.2 266.5 140.2L265.14 138.21C265.1 138.17 261.75 133.34 261.75 133.34C261.67 133.3 234.19 93.7704 234.19 93.7704C234.15 93.7704 215.01 66.2804 215.01 66.2804C215.01 66.2404 212.4 62.5404 212.4 62.5404C212.4 62.5004 207.06 39.6104 207.06 39.6104L202.66 37.1604C202.86 35.1704 203.28 33.1804 203.95 31.1904L210.89 35.1704C210.54 36.7304 210.3 38.2904 210.3 39.7704C210.3 40.2804 210.34 40.9404 210.46 41.6404C210.46 41.6804 252.65 66.0104 252.65 66.0104C252.92 64.0604 253.43 62.0704 254.13 60.1204L261.03 64.1404C260.48 66.0104 260.17 67.8804 260.17 69.6404C260.17 69.8304 260.17 70.1104 260.21 70.3804L302.71 94.9004C303.06 92.9904 303.61 91.0404 304.35 89.1304L311.21 93.1104C310.51 95.1804 310.12 97.2404 310.08 99.1904L352.77 123.83C353.16 121.92 353.78 120.01 354.56 118.14L361.38 122.08C360.6 124.07 360.13 126.1 360.02 128.01L402.87 152.73C403.3 150.82 403.96 148.95 404.78 147.12L411.56 151.06C410.78 153.01 410.24 154.96 409.96 156.87L452.96 181.67C453.47 179.8 454.17 177.97 455.03 176.17L461.81 180.07C460.95 181.94 460.33 183.85 459.98 185.72C459.98 185.76 501.26 209.57 501.26 209.57L504.44 222.28Z" fill="#96BFDE"/>
<path d="M501.24 209.53L420.48 467.68L110.61 288.64L191.33 30.4902L210.44 41.6102C210.44 41.6502 302.69 94.8702 302.69 94.8702C302.69 94.9102 452.95 181.62 452.95 181.62C452.95 181.66 459.97 185.67 459.97 185.67C459.96 185.71 501.24 209.53 501.24 209.53Z" fill="#D0E4F0"/>
<path d="M348.92 287.84L395.81 314.91L408.52 274.38L361.64 247.31L348.92 287.84Z" fill="white"/>
<path d="M397.09 318.19L346.29 288.86L360.36 244.02L411.16 273.35L397.09 318.19ZM351.55 286.81L394.53 311.62L405.89 275.4L362.91 250.59L351.55 286.81Z" fill="#BBDEF7"/>
<path d="M280.57 152.63L293.29 112.1L246.4 85.0303L233.69 125.56L280.57 152.63Z" fill="white"/>
<path d="M281.85 155.92L231.05 126.59L245.12 81.75L295.92 111.08L281.85 155.92ZM236.32 124.54L279.3 149.35L290.66 113.13L247.69 88.32L236.32 124.54Z" fill="#BBDEF7"/>
<path d="M243.54 121.719L251.19 97.3193L283.44 115.939L275.78 140.349L243.54 121.719Z" fill="#96BFDE"/>
<path d="M312.63 254.74L320.28 230.34L352.53 248.96L344.87 273.37L312.63 254.74Z" fill="#FF2243"/>
<path d="M314.75 220.239L302.03 260.769L348.92 287.839L361.64 247.309L314.75 220.239Z" fill="white"/>
<path d="M350.2 291.119L299.4 261.789L313.47 216.949L364.27 246.279L350.2 291.119ZM304.67 259.739L347.64 284.549L359 248.329L316.03 223.519L304.67 259.739Z" fill="#BBDEF7"/>
<path d="M327.46 179.71L340.18 139.18L293.29 112.1L280.57 152.63L327.46 179.71Z" fill="white"/>
<path d="M328.74 182.989L277.94 153.659L292 108.819L342.8 138.159L328.74 182.989ZM283.21 151.609L326.18 176.419L337.54 140.199L294.56 115.379L283.21 151.609Z" fill="#D0E4F0"/>
<path d="M374.35 206.78L387.07 166.25L340.18 139.18L327.46 179.71L374.35 206.78Z" fill="white"/>
<path d="M375.63 210.06L324.83 180.73L338.9 135.89L389.7 165.22L375.63 210.06ZM330.09 178.68L373.07 203.49L384.43 167.27L341.45 142.46L330.09 178.68Z" fill="#BBDEF7"/>
<path d="M421.24 233.85L433.95 193.32L387.07 166.25L374.35 206.78L421.24 233.85Z" fill="white"/>
<path d="M422.52 237.14L371.72 207.8L385.79 162.96L436.59 192.29L422.52 237.14ZM376.98 205.75L419.95 230.57L431.31 194.35L388.34 169.54L376.98 205.75Z" fill="#BBDEF7"/>
<path d="M361.64 247.309L408.52 274.379L421.24 233.849L374.35 206.779L361.64 247.309Z" fill="white"/>
<path d="M409.81 277.659L359 248.329L373.07 203.489L423.87 232.829L409.81 277.659ZM364.27 246.279L407.25 271.089L418.61 234.869L375.64 210.049L364.27 246.279Z" fill="#BBDEF7"/>
<path d="M314.75 220.24L327.46 179.71L280.57 152.63L267.86 193.17L314.75 220.24Z" fill="white"/>
<path d="M316.03 223.52L265.23 194.19L279.3 149.35L330.1 178.68L316.03 223.52ZM270.49 192.14L313.47 216.95L324.83 180.73L281.86 155.92L270.49 192.14Z" fill="#BBDEF7"/>
<path d="M361.64 247.31L374.35 206.78L327.46 179.71L314.75 220.24L361.64 247.31Z" fill="white"/>
<path d="M362.92 250.59L312.12 221.26L326.19 176.42L376.99 205.75L362.92 250.59ZM317.38 219.21L360.35 244.02L371.71 207.8L328.73 182.99L317.38 219.21Z" fill="#BBDEF7"/>
<path d="M267.86 193.17L280.57 152.63L233.69 125.56L220.97 166.09L267.86 193.17Z" fill="white"/>
<path d="M269.14 196.449L218.34 167.119L232.41 122.279L283.21 151.609L269.14 196.449ZM223.6 165.069L266.58 189.879L277.94 153.659L234.96 128.849L223.6 165.069Z" fill="#BBDEF7"/>
<path d="M220.97 166.09L208.26 206.62L255.14 233.7L267.86 193.17L220.97 166.09Z" fill="white"/>
<path d="M256.42 236.98L205.62 207.64L219.69 162.8L270.49 192.13L256.42 236.98ZM210.89 205.6L253.86 230.42L265.22 194.2L222.24 169.39L210.89 205.6Z" fill="#BBDEF7"/>
<path d="M233.69 125.56L186.8 98.4902L174.08 139.02L220.97 166.09L233.69 125.56Z" fill="white"/>
<path d="M222.25 169.38L171.45 140.05L185.52 95.21L236.32 124.54L222.25 169.38ZM176.71 138L219.68 162.81L231.04 126.59L188.07 101.78L176.71 138Z" fill="#BBDEF7"/>
<path d="M267.86 193.17L255.14 233.7L302.03 260.77L314.75 220.24L267.86 193.17Z" fill="white"/>
<path d="M303.31 264.05L252.51 234.72L266.58 189.88L317.38 219.21L303.31 264.05ZM257.78 232.67L300.76 257.48L312.12 221.26L269.14 196.45L257.78 232.67Z" fill="#BBDEF7"/>
<path d="M174.08 139.02L161.37 179.55L208.26 206.62L220.97 166.09L174.08 139.02Z" fill="white"/>
<path d="M209.54 209.909L158.74 180.579L172.81 135.739L223.61 165.069L209.54 209.909ZM164 178.529L206.98 203.339L218.34 167.119L175.37 142.309L164 178.529Z" fill="#BBDEF7"/>
<path d="M208.26 206.62L195.54 247.15L242.43 274.23L255.14 233.7L208.26 206.62Z" fill="white"/>
<path d="M243.71 277.51L192.91 248.18L206.98 203.34L257.78 232.68L243.71 277.51ZM198.17 246.13L241.15 270.94L252.51 234.72L209.54 209.9L198.17 246.13Z" fill="#BBDEF7"/>
<path d="M383.09 355.44L429.98 382.51L442.7 341.98L395.81 314.91L383.09 355.44Z" fill="white"/>
<path d="M431.26 385.8L380.46 356.47L394.53 311.63L445.33 340.96L431.26 385.8ZM385.73 354.42L428.71 379.23L440.07 343.01L397.09 318.2L385.73 354.42Z" fill="#BBDEF7"/>
<path d="M395.81 314.91L442.7 341.98L455.41 301.45L408.52 274.38L395.81 314.91Z" fill="white"/>
<path d="M443.98 345.27L393.18 315.94L407.25 271.1L458.05 300.44L443.98 345.27ZM398.44 313.89L441.42 338.7L452.78 302.48L409.81 277.66L398.44 313.89Z" fill="#BBDEF7"/>
<path d="M348.92 287.84L336.21 328.37L383.09 355.44L395.81 314.91L348.92 287.84Z" fill="white"/>
<path d="M384.37 358.73L333.57 329.4L347.64 284.56L398.44 313.89L384.37 358.73ZM338.84 327.35L381.81 352.16L393.17 315.94L350.19 291.13L338.84 327.35Z" fill="#BBDEF7"/>
<path d="M408.52 274.38L455.41 301.45L468.13 260.92L421.24 233.85L408.52 274.38Z" fill="white"/>
<path d="M456.69 304.74L405.89 275.4L419.96 230.56L470.76 259.89L456.69 304.74ZM411.16 273.35L454.13 298.17L465.49 261.95L422.51 237.14L411.16 273.35Z" fill="#BBDEF7"/>
<path d="M302.03 260.77L289.32 301.3L336.21 328.37L348.92 287.84L302.03 260.77Z" fill="white"/>
<path d="M337.49 331.65L286.69 302.31L300.76 257.47L351.56 286.8L337.49 331.65ZM291.95 300.27L334.93 325.09L346.29 288.87L303.32 264.06L291.95 300.27Z" fill="#BBDEF7"/>
<path d="M233.69 125.56L246.4 85.03L199.51 57.96L186.8 98.4899L233.69 125.56Z" fill="white"/>
<path d="M234.97 128.85L184.17 99.5197L198.24 54.6797L249.04 84.0097L234.97 128.85ZM189.43 97.4697L232.4 122.28L243.76 86.0597L200.78 61.2497L189.43 97.4697Z" fill="#D0E4F0"/>
<path d="M433.95 193.32L421.24 233.85L468.13 260.92L480.84 220.39L433.95 193.32Z" fill="white"/>
<path d="M469.41 264.21L418.61 234.88L432.68 190.04L483.48 219.37L469.41 264.21ZM423.87 232.83L466.85 257.64L478.21 221.42L435.23 196.61L423.87 232.83Z" fill="#BBDEF7"/>
<path d="M255.14 233.7L242.43 274.23L289.32 301.3L302.03 260.77L255.14 233.7Z" fill="white"/>
<path d="M290.6 304.58L239.8 275.25L253.87 230.41L304.67 259.74L290.6 304.58ZM245.06 273.2L288.03 298.01L299.39 261.79L256.41 236.98L245.06 273.2Z" fill="#BBDEF7"/>
<path d="M161.37 179.55L148.65 220.08L195.54 247.15L208.26 206.62L161.37 179.55Z" fill="white"/>
<path d="M196.82 250.44L146.02 221.11L160.09 176.27L210.89 205.6L196.82 250.44ZM151.28 219.06L194.26 243.87L205.62 207.65L162.64 182.84L151.28 219.06Z" fill="#BBDEF7"/>
<path d="M252.9 268.9L260.55 244.5L292.8 263.12L285.15 287.52L252.9 268.9Z" fill="#0091E0"/>
<path d="M418.8 270.46L426.45 246.06L458.7 264.68L451.04 289.08L418.8 270.46Z" fill="#96BFDE"/>
<path d="M229.74 314.551L242.46 274.021L195.57 246.951L182.86 287.481L229.74 314.551Z" fill="white"/>
<path d="M231.03 317.841L180.23 288.511L194.3 243.671L245.1 273.001L231.03 317.841ZM185.49 286.461L228.47 311.271L239.83 275.051L196.86 250.241L185.49 286.461Z" fill="#BBDEF7"/>
<path d="M192.71 283.64L200.36 259.24L232.61 277.86L224.96 302.26L192.71 283.64Z" fill="#96BFDE"/>
<path d="M276.63 341.631L289.35 301.101L242.46 274.021L229.74 314.551L276.63 341.631Z" fill="white"/>
<path d="M277.91 344.91L227.11 315.58L241.17 270.74L291.97 300.08L277.91 344.91ZM232.38 313.53L275.35 338.34L286.71 302.12L243.73 277.3L232.38 313.53Z" fill="#BBDEF7"/>
<path d="M323.52 368.701L336.24 328.171L289.35 301.101L276.63 341.631L323.52 368.701Z" fill="white"/>
<path d="M324.8 371.981L274 342.651L288.07 297.811L338.87 327.141L324.8 371.981ZM279.26 340.601L322.24 365.411L333.6 329.191L290.62 304.381L279.26 340.601Z" fill="#BBDEF7"/>
<path d="M370.41 395.771L383.12 355.241L336.24 328.171L323.52 368.701L370.41 395.771Z" fill="white"/>
<path d="M371.69 399.061L320.89 369.721L334.96 324.881L385.76 354.211L371.69 399.061ZM326.15 367.671L369.12 392.491L380.48 356.271L337.51 331.461L326.15 367.671Z" fill="#BBDEF7"/>
<path d="M182.86 287.481L195.57 246.951L148.68 219.881L135.97 260.411L182.86 287.481Z" fill="white"/>
<path d="M184.14 290.771L133.34 261.441L147.41 216.601L198.21 245.931L184.14 290.771ZM138.6 259.391L181.57 284.201L192.93 247.981L149.95 223.171L138.6 259.391Z" fill="#BBDEF7"/>
<path d="M383.12 355.241L370.41 395.771L417.3 422.841L430.01 382.311L383.12 355.241Z" fill="white"/>
<path d="M418.58 426.131L367.78 396.801L381.85 351.961L432.65 381.291L418.58 426.131ZM373.04 394.751L416.02 419.561L427.38 383.341L384.4 358.531L373.04 394.751Z" fill="#BBDEF7"/>
<path d="M238.51 23.4401C238.51 29.9101 235.7 37.2801 231.14 43.2101L224.36 39.2701C228.22 34.5901 230.71 28.4701 230.71 23.4401C230.71 20.6301 229.93 18.5701 228.53 17.7901C227.17 17.0101 224.94 17.3601 222.45 18.8001C217.97 21.3701 214.06 26.6801 211.88 32.1001C211.47 33.1201 211.12 34.1201 210.87 35.1401C210.49 36.6901 210.28 38.2601 210.28 39.7401C210.28 40.2501 210.33 40.9101 210.44 41.6101C210.74 43.5201 211.61 45.7001 213.95 45.8201L213.6 53.5801C212.35 53.5001 211.18 53.2701 210.13 52.8801C207.67 51.9801 205.69 50.1901 204.4 47.7701C203.15 45.5501 202.49 42.8601 202.49 39.7401C202.49 38.8801 202.55 37.9901 202.65 37.1301C202.88 35.1501 203.27 33.1501 203.94 31.1601C204.25 30.1501 204.64 29.0901 205.07 28.1201C207.92 21.4501 212.83 15.3301 218.56 12.0601C223.59 9.14006 228.54 8.79007 232.44 11.0501C236.36 13.3101 238.51 17.7101 238.51 23.4401Z" fill="#FCFBFF"/>
<path d="M288.37 53.31C288.37 59.51 285.8 66.57 281.59 72.34L274.77 68.3999C278.32 63.8399 280.58 58.11 280.58 53.31C280.58 50.5 279.8 48.44 278.44 47.66C277.04 46.84 274.81 47.23 272.32 48.67C268.07 51.09 264.29 55.92 262.11 61.07C261.68 62.08 261.29 63.1 261.02 64.11C260.47 65.98 260.16 67.8499 260.16 69.6099C260.16 69.7999 260.16 70.08 260.2 70.35C260.32 72.34 260.94 75.4999 263.83 75.6499L263.48 83.45C256.85 83.14 252.37 77.5999 252.37 69.6099C252.37 68.3999 252.45 67.1899 252.64 65.9799C252.91 64.0299 253.42 62.04 254.12 60.09C254.47 59.11 254.86 58.1 255.29 57.17C258.18 50.81 262.93 45.08 268.43 41.89C273.46 39 278.41 38.65 282.35 40.91C286.23 43.17 288.37 47.58 288.37 53.31Z" fill="#FCFBFF"/>
<path d="M338.24 83.1703C338.24 89.1003 335.9 95.8003 332 101.46L325.22 97.5203C328.46 93.0803 330.44 87.7003 330.44 83.1703C330.44 80.3603 329.66 78.3003 328.3 77.5203C326.9 76.7003 324.67 77.0503 322.18 78.5003C318.16 80.8003 314.58 85.2403 312.35 90.0803C311.88 91.0903 311.49 92.0703 311.18 93.0803C310.48 95.1503 310.09 97.2103 310.05 99.1603V99.4303C310.05 101.22 310.4 105.36 313.68 105.51L313.33 113.31C306.7 113 302.26 107.42 302.26 99.4303C302.26 97.9503 302.42 96.4303 302.69 94.9103C303.04 92.9603 303.59 91.0103 304.33 89.1003C304.68 88.1303 305.11 87.1503 305.58 86.1803C308.46 80.1803 313.03 74.7603 318.29 71.7503C323.24 68.9003 328.31 68.5103 332.21 70.7803C336.1 73.0003 338.24 77.4003 338.24 83.1703Z" fill="#FCFBFF"/>
<path d="M388.11 113.04C388.11 118.69 385.97 125.05 382.38 130.51L375.63 126.61C378.52 122.32 380.31 117.29 380.31 113.04C380.31 110.23 379.53 108.17 378.17 107.35C376.77 106.57 374.54 106.92 372.05 108.36C368.27 110.54 364.84 114.64 362.61 119.12C362.1 120.09 361.71 121.07 361.36 122.04C360.58 124.03 360.11 126.06 360 127.97C359.92 128.44 359.92 128.87 359.92 129.3C359.92 131.09 360.27 135.23 363.55 135.38L363.2 143.18C356.57 142.87 352.13 137.29 352.13 129.3C352.13 127.51 352.33 125.67 352.75 123.8C353.14 121.89 353.81 120 354.54 118.11C354.91 117.14 355.36 116.16 355.87 115.22C358.76 109.53 363.16 104.5 368.15 101.61C373.14 98.7202 378.21 98.3702 382.07 100.6C385.96 102.86 388.11 107.27 388.11 113.04Z" fill="#FCFBFF"/>
<path d="M437.97 142.86C437.97 148.24 436.02 154.28 432.71 159.59L425.97 155.69C428.62 151.6 430.18 146.88 430.18 142.86C430.18 140.05 429.4 137.99 428.04 137.21C426.64 136.43 424.41 136.78 421.92 138.22C418.37 140.25 415.14 143.95 412.91 148.12C412.4 149.06 411.94 150.03 411.54 151.01C410.76 152.96 410.22 154.91 409.94 156.82C409.82 157.64 409.78 158.42 409.78 159.16C409.78 160.91 410.13 165.09 413.45 165.24L413.06 173C406.43 172.73 401.99 167.15 401.99 159.16C401.99 157.05 402.3 154.87 402.85 152.69C403.28 150.78 403.94 148.91 404.76 147.08C405.19 146.14 405.66 145.21 406.16 144.27C409.08 138.93 413.26 134.21 418.01 131.48C423.08 128.56 427.99 128.21 431.93 130.47C435.83 132.73 437.97 137.13 437.97 142.86Z" fill="#FCFBFF"/>
<path d="M487.84 172.73C487.84 177.88 486.09 183.57 483.08 188.68L476.33 184.78C478.67 180.88 480.03 176.51 480.03 172.73C480.03 169.92 479.25 167.86 477.89 167.08C476.49 166.26 474.26 166.65 471.77 168.09C468.46 170 465.41 173.35 463.19 177.17C462.68 178.11 462.2 179.05 461.79 180.02C460.98 181.91 460.29 183.8 459.96 185.67C459.75 186.84 459.65 187.97 459.65 189.02C459.65 190.77 460 194.91 463.31 195.06L462.96 202.86C456.29 202.55 451.85 196.97 451.85 189.02C451.85 186.64 452.26 184.15 452.94 181.65C453.46 179.74 454.15 177.91 455.01 176.11C455.44 175.14 455.93 174.19 456.45 173.26C459.29 168.22 463.39 163.9 467.87 161.29C472.86 158.44 477.93 158.05 481.79 160.32C485.69 162.55 487.84 166.96 487.84 172.73Z" fill="#FCFBFF"/>
<path d="M291.64 198.1C291.25 197.95 290.85 197.88 290.45 197.86C276.44 190.44 258.15 192.78 249.2 207.23C236.02 228.52 253.53 247.81 273.11 255.02C289.76 261.15 317.08 263.34 326.19 243.74C337.08 220.31 309 204.78 291.64 198.1ZM284.73 252.5C270.92 249.43 254.04 241.43 252.27 225.58C249.99 205.15 271.99 192.21 288.95 204.04C289.84 204.66 291 204.77 292.09 204.57C297.27 206.63 302.62 209 307.3 212.12C302.52 214.32 297.76 216.59 293.26 219.34C290.6 220.97 288 222.72 285.63 224.76C285.18 225.15 283.71 226.83 282.41 228.2C280.4 222.15 279.16 215.84 276.4 209.93C274.89 206.7 267.68 207.88 269.34 211.43C272.71 218.63 273.8 226.46 276.8 233.63C277.4 235.06 278.88 235.63 280.33 235.69C285.84 235.94 288.64 230.38 292.61 227.27C298.59 222.58 305.63 219.43 312.49 216.28C316.03 219.65 318.79 223.73 320.12 228.88C325.6 250.23 300.67 256.05 284.73 252.5Z" fill="#E40646"/>
<path d="M171.26 99.9004C170.83 100.53 170.2 100.95 170.2 100.95C170.2 100.95 170.83 101.38 170.83 102.03C170.83 102.66 167.84 103.3 167.84 103.3L161.85 102.03L157.47 102.53C158.36 102.87 164.11 105.05 165.49 105.05C166.98 105.05 166.35 107.17 164.41 107.39C162.48 107.61 156.08 106.53 156.08 106.53C156.08 106.53 149.24 108.46 143.25 106.96C137.26 105.45 135.33 104.39 135.33 104.39L135.76 96.4904L140.24 90.7104L146.67 87.9404C146.67 87.9404 152.44 87.5004 154.78 86.4304C157.14 85.3704 158.2 85.1504 158.2 85.1504C158.2 85.1504 158.85 87.2904 155.86 88.7904C152.87 90.2804 151.58 91.1304 151.58 91.1304C151.58 91.1304 153.4 90.8504 155.96 90.4104C158.53 90.0004 166.71 91.7304 168.08 91.7004C173.11 91.5904 170.22 93.9504 168.4 94.2704C167.71 94.3904 159.55 93.9504 156.44 95.0104L163.33 95.1804C163.33 95.1804 168.68 97.9704 169.76 98.1904C170.83 98.3904 171.69 99.2504 171.26 99.9004Z" fill="#FFC0C1"/>
<path d="M18.4 370.55C42.55 384.49 81.83 384.42 106.14 370.39C130.44 356.36 130.57 333.68 106.41 319.73C82.26 305.79 42.97 305.86 18.67 319.89C-5.63 333.93 -5.76001 356.61 18.4 370.55Z" fill="#001442"/>
<path d="M47.7199 20.4804C47.7199 20.4804 46.4499 14.1004 39.9599 14.2004C33.4699 14.3004 31.5199 17.7304 29.2299 22.9804C26.9499 28.2304 28.0899 42.5604 29.2299 43.7304C30.3699 44.8904 31.5599 48.5404 37.8199 45.8104C44.0699 43.0704 47.7199 20.4804 47.7199 20.4804Z" fill="black"/>
<path d="M76.6699 320.75C76.6699 320.75 84.3599 327.43 89.2999 329.09C94.2399 330.76 104.32 339.94 106.55 345.02C108.78 350.1 106.27 354.6 106.27 354.6C106.27 354.6 95.1599 356.55 86.7999 349.57C78.4399 342.59 79.1699 341.4 76.6699 339.96C74.1699 338.52 64.6599 337.74 61.4799 331.19C58.2999 324.64 65.4499 318.83 65.4499 318.83L76.6699 320.75Z" fill="#98BBE4"/>
<path d="M76.6699 317.971C76.6699 317.971 84.3599 324.651 89.2999 326.311C94.2399 327.981 104.32 337.161 106.55 342.241C108.78 347.321 106.27 351.821 106.27 351.821C106.27 351.821 95.1599 353.771 86.7999 346.791C78.4399 339.811 79.1699 338.621 76.6699 337.181C74.1699 335.741 64.6599 334.961 61.4799 328.411C58.2999 321.861 65.4499 316.051 65.4499 316.051L76.6699 317.971Z" fill="#00875D"/>
<path d="M38.2399 328.45L39.2399 334.33C39.2399 334.33 45.3499 351.07 47.6899 355.43C50.0399 359.79 51.1399 368.51 47.7899 371.19C44.4399 373.87 31.4399 371.83 25.4399 363.78C22.8699 360.33 23.1599 346.06 23.1599 346.06C23.1599 346.06 14.9299 329.56 17.3599 326.29C20.6999 321.8 27.6699 322.49 27.6699 322.49L38.2399 328.45Z" fill="#98BBE4"/>
<path d="M40.09 326.44L41.1 332.32C41.1 332.32 43.45 346.06 45.79 350.42C48.13 354.78 51.49 366.5 48.13 369.18C44.78 371.86 33.29 369.82 27.29 361.77C24.72 358.32 25.01 344.05 25.01 344.05C25.01 344.05 16.67 326.63 20 324.28C23.33 321.93 29.52 320.48 29.52 320.48L40.09 326.44Z" fill="#00875D"/>
<path d="M101.11 156.62C101.11 156.62 108.45 187.37 103.43 212.1C98.3999 236.82 89.0199 259.94 89.0199 265.3C89.0199 270.66 78.3499 291.86 80.5099 316.05C80.7399 318.63 111.83 345.52 78.1499 329.51C70.2899 325.77 64.0499 317.42 64.0499 317.42C64.0499 317.42 60.1999 273.34 65.8999 265.97C71.5999 258.6 71.5999 253.91 71.5999 253.91C71.5999 253.91 59.4699 198.96 60.6699 182.2C61.8699 165.45 101.11 156.62 101.11 156.62Z" fill="#FAB0B3"/>
<path d="M100.99 154.721L102.22 155.391C102.22 155.391 110.2 169.971 107.22 199.211C104.24 228.441 83.3499 309.591 83.3499 312.571C83.3499 315.551 80.4999 316.051 80.4999 316.051C80.4999 316.051 69.7899 322.271 64.0399 317.421C58.2899 312.571 58.2899 310.181 58.2899 310.181C58.2899 310.181 60.6799 269.011 63.6599 260.661C66.6399 252.311 57.6899 171.761 57.6899 171.761L100.99 154.721Z" fill="#26C89B"/>
<path d="M69.0799 68.6101C69.0799 68.6101 63.7999 59.7301 71.5899 57.4701C79.3799 55.2101 84.8299 62.5001 85.9999 66.1801C87.1699 69.8701 87.8399 72.0401 90.6899 75.3101C93.5399 78.5801 104.09 91.9001 104.68 93.1501C105.27 94.4101 106.27 96.5801 106.27 96.5801L102.79 112.83C102.79 112.83 97.8099 115.09 88.7599 103.95C79.7199 92.8201 69.0799 68.6101 69.0799 68.6101Z" fill="#FFC0C1"/>
<path d="M67.33 57.0404C67.33 57.0404 81.43 52.0404 85.34 58.5504C89.25 65.0604 90.48 71.2304 90.48 71.2304L106.27 94.4804C106.27 94.4804 121.75 92.6304 125.87 93.0404C129.98 93.4504 137.61 95.6904 137.61 95.6904C137.61 95.6904 140.06 100.65 138.83 106.2C137.61 111.75 107.08 119.02 97.14 115.39C87.19 111.75 54.05 66.9204 67.33 57.0404Z" fill="#58F4C7"/>
<path d="M75.2799 186.89C75.2799 186.89 96.22 279.29 86.92 289.39C77.62 299.48 57.8499 311.21 52.1599 318.25C46.4599 325.29 41.0999 332.32 41.0999 332.32C41.0999 332.32 44.71 356.35 27.92 329.26C26.71 327.31 25.9399 323.28 25.9399 323.28C25.9399 323.28 31.45 321.56 36.14 308.34C40.83 295.12 44.1199 284.41 52.1599 282.06C60.1999 279.72 60.2 279.72 60.2 279.72C60.2 279.72 32.72 206.34 33.39 194.94C34.06 183.55 40.4299 172.15 40.4299 172.15C40.4299 172.15 46.3999 181 57.6199 183.96C68.8399 186.92 75.2799 186.89 75.2799 186.89Z" fill="#FFC0C1"/>
<path d="M79.78 178.92C79.78 178.92 86.34 233.81 88.36 252.83C90.37 271.85 90.15 284.82 88.58 288.63C87.01 292.43 44.5 334.27 44.5 334.27C44.5 334.27 38.91 337.63 34.88 332.7C30.85 327.78 29.29 320.39 29.29 320.39C29.29 320.39 40.92 289.51 46.29 284.59C51.66 279.67 56.13 274.52 56.13 274.52C56.13 274.52 28.83 212.54 31.3 193.3C33.76 174.06 44.28 166.9 44.28 166.9L79.78 178.92Z" fill="#2FD4A1"/>
<path d="M27.35 91.0704C28.05 96.7504 45.12 154.39 45.12 154.39L37.18 179.24C37.18 179.24 41.0899 189.24 46.4599 192.59C51.82 195.94 71.2599 194.92 89.2999 182.22C107.34 169.46 102.09 152.73 102.09 152.73C102.09 152.73 100.43 152.73 99.41 148.71C98.42 144.69 93.38 140.67 93.38 140.67L91.3699 126.92C91.3699 126.92 94.05 121.56 97.75 114.19C101.42 106.82 98.39 102.13 94.72 96.7704C91.05 91.4104 72.93 65.2704 72.93 65.2704C69.45 60.2004 65.0799 67.2804 65.0799 67.2804V63.2604L60.6 57.9004C60.6 57.9004 47.81 47.5004 46.12 59.5604C45.4 64.8704 43.36 68.3504 41.16 70.6804C38.34 73.6804 35.34 74.7604 34.4 75.3204C32.71 76.3304 26.7 85.3604 27.35 91.0704Z" fill="#FAB0B3"/>
<path d="M64.45 62.4902C64.49 63.1402 64.4599 63.8602 64.4599 64.7002C64.4499 65.5402 64.5399 66.4502 64.6199 67.3202L65.5199 67.2602C65.4999 65.9202 65.4599 64.5802 65.2399 63.2402C64.9099 62.8702 64.62 62.6902 64.45 62.4902ZM64.45 62.4902C64.69 62.8002 64.8099 63.1202 64.9299 63.3502C64.6799 64.5802 64.6399 65.9202 64.6099 67.2602L65.5099 67.2002C65.3799 66.4702 65.2699 65.8002 65.0499 65.0402C64.8499 64.3102 64.61 63.4402 64.45 62.4902Z" fill="#CC6C4C"/>
<path d="M27.3499 91.0707C28.0499 96.7507 36.5399 134.231 37.4199 148.491C37.9399 156.871 37.1899 179.231 37.1899 179.231C37.1899 179.231 41.0999 189.231 46.4699 192.581C51.8299 195.931 71.2699 194.911 89.3099 182.211C107.35 169.451 102.1 152.721 102.1 152.721C102.1 152.721 94.0599 121.541 97.7599 114.171C101.43 106.801 98.3999 102.111 94.7299 96.7507C91.0599 91.3907 72.9399 65.2507 72.9399 65.2507C69.4599 60.1807 65.0899 67.2607 65.0899 67.2607C65.0899 67.2607 67.4599 75.0607 66.4499 77.4107C65.4999 79.6307 59.1799 84.4707 53.4699 81.4407C47.7899 78.4107 38.8699 73.8007 41.1499 70.7207C38.3599 73.6707 35.2599 74.6007 34.4199 75.3007C20.7399 86.7907 26.6999 85.3607 27.3499 91.0707Z" fill="#4CE4BC"/>
<path d="M73.85 32.7508C73.85 32.7508 68.07 18.5908 53.16 18.5908C38.25 18.5908 35.48 33.2508 35.73 36.3508C35.98 39.4508 36.96 49.2808 39.92 51.9308C58.52 68.6108 77.62 50.6008 73.85 32.7508Z" fill="black"/>
<path d="M73.85 32.7501C73.85 32.7501 76.95 41.9601 76.95 43.7201C76.95 45.4801 75.94 45.4001 76.2 47.3201C76.45 49.2501 78.8 53.0201 76.95 56.3701C75.11 59.7201 75.11 63.5701 75.11 65.7501C75.11 67.9301 75.86 70.6901 73.02 71.8701C70.17 73.0401 69.67 74.0501 63.81 71.8701C57.95 69.6901 53.06 67.4301 50.48 65.3801C47.9 63.3301 45.3 58.9701 45.3 58.9701C45.3 58.9701 43.96 59.8101 41.78 58.3001C39.6 56.7901 36.92 53.7101 36.92 53.7101C36.92 53.7101 35.18 48.1501 36.33 47.4901C37.49 46.8301 40.02 48.2801 40.02 48.2801L42.95 48.6601C42.95 48.6601 46.32 54.6101 48.4 53.7101C48.4 53.7101 46.98 43.9701 50.75 40.7901C63.13 30.3201 73.85 32.7501 73.85 32.7501Z" fill="#FFC0C1"/>
<path d="M36.75 104.321C36.75 104.321 34.79 108.601 30.44 120.731C26.09 132.861 24.84 142.111 24.84 142.111L37.19 179.511L46.83 191.111L50.12 201.771C50.12 201.771 51.57 203.201 52.35 204.591C53.13 205.981 53.02 207.671 53.02 207.671C53.02 207.671 52.29 209.381 50.95 207.811C49.61 206.231 47.45 203.181 47.45 203.181L44.6 196.571L46.95 203.871C46.95 203.871 48.74 207.121 49 208.961C49.25 210.801 48.35 211.241 48.05 211.391C47.75 211.541 45.3 207.521 45.3 207.521L41.32 198.241L44.47 208.111L47.3 211.761C47.3 211.761 47.14 213.331 44.86 211.751C42.58 210.171 42.91 210.841 41.78 209.111C41.18 208.201 37.19 199.111 37.19 199.111L38.5 203.551C38.5 203.551 40.45 206.281 39.93 206.911C39.4 207.541 39.2 207.411 38.18 206.731C37.16 206.051 35.89 203.471 35.89 203.471C35.89 203.471 33.31 193.551 32.69 193.011C32.07 192.471 29.81 186.161 29.81 186.161C29.81 186.161 18.6 167.251 15.25 162.481C3.48003 145.711 10.19 136.951 11.3 131.261C12.41 125.571 13.48 124.141 15.19 118.581C16.9 113.021 16.08 92.711 22.53 85.641C28.98 78.571 37.12 78.351 39.49 84.141C41.86 89.921 38.82 97.051 36.75 104.321Z" fill="#FFC0C1"/>
<path d="M35.72 78.2208C35.72 78.2208 39.08 77.8508 41.12 85.0308C43.16 92.2108 25.93 139.111 25.93 139.111C25.93 139.111 31.45 148.551 35.92 158.861C40.39 169.171 37.18 179.511 37.18 179.511C37.18 179.511 38.68 184.131 33.61 184.781C28.54 185.431 25.93 183.921 25.93 183.921C25.93 183.921 3.45997 152.691 6.13997 143.431C8.80997 134.171 16.43 92.2108 17.87 88.0908C19.31 83.9808 29.48 74.6208 35.72 78.2208Z" fill="#58F4C7"/>
<path d="M56.8299 190.281C56.8299 190.281 53.5699 189.471 52.3299 187.281C51.0899 185.091 45.7299 184.081 44.3699 182.961C41.2199 180.371 37.1799 179.521 37.1799 179.521L46.8199 191.121C46.8199 191.121 48.7799 189.691 50.1599 190.601C51.5399 191.511 54.6099 193.171 56.6499 191.831C58.7099 190.481 56.8299 190.281 56.8299 190.281Z" fill="#FFC0C1"/>
<path d="M67.35 31.2004C67.35 31.2004 67.45 38.9604 62.89 41.7004C58.32 44.4404 53.3 46.6304 54.67 52.8304C56.04 59.0404 55.05 61.1604 52.42 63.7604C49.79 66.3604 47.92 66.3604 47.92 66.3604C47.92 66.3604 53.66 62.0204 50.79 57.4404C47.92 52.8604 45.49 42.9704 47.92 38.5704C51.93 31.2904 64.05 26.8604 67.35 31.2004Z" fill="black"/>
<path d="M76.95 43.7301C76.95 43.7301 76.54 39.2901 73.01 37.2201C69.47 35.1501 66.34 31.2001 66.34 31.2001C66.34 31.2001 71.69 29.01 75.34 32.51C78.99 36.01 76.95 43.7301 76.95 43.7301Z" fill="black"/>
<path d="M75.9201 109.59L62.58 117.29L58.3 108.36L71.6401 100.66L75.9201 109.59Z" fill="#0091E0"/>
<path d="M222.73 417.35V463.84C222.73 471.92 211.38 478.47 197.35 478.47C185.52 478.47 175.57 473.78 172.81 467.48C172.51 466.85 172.3 466.22 172.18 465.56C172.06 464.99 172 464.42 172 463.85V417.36C172 425.44 183.35 432.02 197.35 432.02C205.25 432.02 212.28 429.95 216.93 426.67C216.99 426.64 217.05 426.61 217.08 426.55C220.63 424.05 222.73 420.84 222.73 417.35Z" fill="#C1E3FB"/>
<path d="M197.36 473.479C185.71 473.479 177 468.389 177 463.839V432.049C182.35 435.139 189.46 436.999 197.36 436.999C205.26 436.999 212.37 435.139 217.72 432.049V463.839C217.72 468.399 209.02 473.479 197.36 473.479Z" fill="#4CE4BC"/>
<path d="M222.73 417.349C222.73 420.829 220.63 424.049 217.08 426.539C217.05 426.599 216.99 426.629 216.93 426.659C212.27 429.929 205.25 432.01 197.35 432.01C183.35 432.01 172 425.429 172 417.349C172 413.899 174.1 410.71 177.59 408.19C178.76 407.35 180.05 406.57 181.52 405.94C182.06 405.67 182.57 405.46 183.11 405.25C187.16 403.63 192.09 402.729 197.35 402.729C201.34 402.729 205.16 403.27 208.52 404.2C209.93 404.62 211.25 405.069 212.48 405.609C212.96 405.819 213.41 406.03 213.86 406.24C214.04 406.33 214.19 406.42 214.37 406.51C215.48 407.08 216.53 407.74 217.46 408.43C217.73 408.64 218.03 408.85 218.3 409.09C221.11 411.44 222.73 414.289 222.73 417.349Z" fill="#D9EEFA"/>
<path d="M214.38 401.17V410.45C214.38 413.24 212.28 415.77 208.91 417.51C208.34 417.81 207.74 418.08 207.11 418.32C204.5 419.34 201.34 419.91 197.95 419.91C188.88 419.91 181.52 415.68 181.52 410.45V401.17C181.52 402.64 182.09 404.02 183.11 405.25C183.56 405.79 184.07 406.33 184.7 406.81C187.7 409.12 192.51 410.65 197.95 410.65C201.61 410.65 204.99 409.91 207.74 408.76C208.87 408.29 209.9 407.74 210.8 407.08C211.43 406.63 212 406.12 212.48 405.61C213.69 404.29 214.38 402.79 214.38 401.17Z" fill="#28648F"/>
<path d="M177.59 398.93C177.59 392.44 186.7 387.18 197.95 387.18C209.19 387.18 218.31 392.44 218.31 398.93C218.31 405.42 209.2 410.68 197.95 410.68C186.71 410.69 177.59 405.43 177.59 398.93Z" fill="#9FC8E8"/>
<path d="M222.73 417.35V463.84C222.73 471.92 211.38 478.47 197.35 478.47C185.52 478.47 175.57 473.78 172.81 467.48C172.69 467.12 172.57 466.76 172.51 466.4C174.43 468.92 181.19 476.04 195.43 476.04C200.57 476.04 204.59 474.87 207.68 472.98C214.62 468.75 217.17 460.91 218.04 454.3C218.1 453.88 218.15 453.43 218.19 453.01C218.75 446.72 218.67 439.22 218.04 433.19C218.04 433.1 218.04 433.01 218.01 432.92C217.8 430.91 217.56 429.08 217.26 427.51C217.2 427.18 217.14 426.85 217.08 426.55C216.96 425.98 216.83 425.47 216.69 424.99C215.5 420.93 213.09 420.12 211.85 420C211.52 419.94 208.07 418.68 207.1 418.32C206.95 418.26 206.86 418.23 206.86 418.23C206.86 418.23 207.07 413.72 207.73 408.77C207.94 407.24 208.18 405.71 208.51 404.2C209.92 404.62 211.24 405.07 212.47 405.61C213.67 404.29 214.36 402.79 214.36 401.16V406.51C215.47 407.08 216.52 407.74 217.45 408.43C217.72 408.64 218.02 408.85 218.29 409.09C221.11 411.44 222.73 414.29 222.73 417.35Z" fill="#D9EEFA"/>
<path d="M218.31 388.67V400.14C218.31 403.61 215.7 406.74 211.54 408.89C207.95 410.76 203.18 411.89 197.95 411.89C186.71 411.89 177.59 406.62 177.59 400.14V388.67C177.59 391.29 179.07 393.69 181.56 395.65C185.26 398.54 191.23 400.43 197.95 400.43C204.4 400.43 210.16 398.7 213.88 395.99C216.65 393.99 218.31 391.44 218.31 388.67Z" fill="#C1E3FB"/>
<path d="M177.59 388.67C177.59 382.18 186.71 376.92 197.95 376.92C209.19 376.92 218.31 382.18 218.31 388.67C218.31 395.16 209.2 400.42 197.95 400.42C186.71 400.42 177.59 395.16 177.59 388.67Z" fill="#9FC8E8"/>
</g>
<defs>
<clipPath id="clip0_38_6760">
<rect width="527" height="621" fill="white"/>
</clipPath>
</defs>
</svg>
