<svg width="374" height="620" viewBox="0 0 374 620" fill="none" xmlns="http://www.w3.org/2000/svg">
<g clip-path="url(#clip0_44_873)">
<path opacity="0.8" d="M127.861 500.744L61.2192 463.723L218.915 180.073C220.029 178.071 222.561 177.347 224.564 178.46L283.936 211.447C285.939 212.56 286.663 215.092 285.549 217.094L127.861 500.744Z" fill="#F6F6F6"/>
<path d="M127.16 516.703L48.0279 472.735C43.4308 470.18 41.7712 464.377 44.3269 459.782C46.8825 455.186 52.6873 453.527 57.2844 456.082L136.417 500.05C141.014 502.605 142.673 508.408 140.118 513.003C137.562 517.607 131.765 519.258 127.16 516.703Z" fill="#F6F6F6"/>
<path d="M266.748 201.897L241.76 188.017L264.909 146.385L277.111 137.474C280.001 135.364 283.866 135.122 286.998 136.859C290.271 138.674 292.11 142.296 291.658 146.011L289.897 160.265L266.748 201.897Z" fill="#72788F"/>
<path d="M271.16 198.898L242.003 182.699L239.687 186.866L268.843 203.065L271.16 198.898Z" fill="#72788F"/>
<path opacity="0.42" d="M269.062 197.73L289.897 160.257L292.413 139.858L288.245 137.545L285.736 157.944L264.901 195.417L266.982 196.577L264.667 200.737L266.748 201.897L268.836 203.05L271.15 198.891L269.062 197.73Z" fill="#72788F"/>
<path d="M259.992 187.355L257.904 186.195L357.443 7.16583L364.151 0L259.992 187.355Z" fill="#72788F"/>
<path d="M143.624 335.12L220.855 196.204C222.943 192.45 227.688 191.094 231.444 193.182L267.807 213.386C271.563 215.474 272.919 220.217 270.831 223.971L193.6 362.887L143.624 335.12Z" fill="#40E2D9"/>
<path opacity="0.4" d="M237.802 240.305C233.968 247.206 225.265 249.691 218.361 245.851C211.458 242.018 208.973 233.318 212.814 226.417C216.647 219.516 225.351 217.031 232.254 220.871C239.15 224.711 241.635 233.412 237.802 240.305Z" fill="#05D8BF"/>
<path opacity="0.4" d="M210.944 318.03C208.388 322.625 202.583 324.284 197.986 321.73C193.389 319.175 191.73 313.372 194.285 308.777C196.841 304.181 202.646 302.522 207.243 305.077C211.848 307.624 213.499 313.427 210.944 318.03Z" fill="#05D8BF"/>
<path opacity="0.4" d="M234.56 265.751C233.283 268.049 230.384 268.882 228.078 267.597C225.779 266.319 224.945 263.422 226.231 261.116C227.509 258.819 230.407 257.985 232.714 259.27C235.004 260.556 235.838 263.453 234.56 265.751Z" fill="#05D8BF"/>
<path opacity="0.4" d="M207.617 272.729C210.149 273.446 211.63 276.071 210.913 278.602C210.196 281.134 207.57 282.606 205.038 281.897C202.505 281.18 201.025 278.556 201.742 276.024C202.451 273.493 205.085 272.013 207.617 272.729Z" fill="#05D8BF"/>
<path opacity="0.4" d="M185.847 336.856C187.257 337.253 188.075 338.71 187.678 340.119C187.281 341.529 185.823 342.347 184.413 341.95C183.003 341.553 182.185 340.096 182.582 338.686C182.972 337.284 184.437 336.466 185.847 336.856Z" fill="#05D8BF"/>
<path opacity="0.4" d="M177.159 331.949C175.741 334.504 172.515 335.423 169.96 334.005C167.404 332.588 166.485 329.363 167.903 326.808C169.321 324.253 172.546 323.334 175.102 324.752C177.658 326.177 178.577 329.394 177.159 331.949Z" fill="#05D8BF"/>
<path d="M143.633 335.112L132.058 355.932L182.035 383.698L193.61 362.878L143.633 335.112Z" fill="#2F4260"/>
<path opacity="0.99" d="M167.454 375.617L146.627 364.046L19.3124 593.044L40.1395 604.615L167.454 375.617Z" fill="#F6F6F6"/>
<path d="M49.949 610.066L8.30164 586.928L3.67233 595.254L45.3197 618.393L49.949 610.066Z" fill="#F6F6F6"/>
<path opacity="0.15" d="M167.452 375.618L157.385 370.025L30.0706 599.023L40.1368 604.616L167.452 375.618Z" fill="#CCCCCC"/>
<path opacity="0.42" d="M275.607 206.82L257.312 196.655C261.621 199.046 263.171 204.483 260.779 208.783L105.398 488.266L123.693 498.43L279.074 218.947C281.466 214.64 279.916 209.211 275.607 206.82Z" fill="#CCCCCC"/>
<path opacity="0.63" d="M240.124 187.107L245.921 190.331C241.612 187.94 236.181 189.49 233.789 193.797L78.4076 473.272L72.6028 470.048L227.984 190.565C230.384 186.258 235.815 184.708 240.124 187.107Z" fill="#F6F6F6"/>
<path opacity="0.99" d="M211.894 198.665L232.714 210.232" stroke="#F6F6F6" stroke-width="0.6315" stroke-miterlimit="10" stroke-linecap="round"/>
<path opacity="0.99" d="M206.339 208.658L222.997 217.911" stroke="#F6F6F6" stroke-width="0.6315" stroke-miterlimit="10" stroke-linecap="round"/>
<path opacity="0.99" d="M200.783 218.651L217.442 227.905" stroke="#F6F6F6" stroke-width="0.6315" stroke-miterlimit="10" stroke-linecap="round"/>
<path opacity="0.99" d="M195.228 228.645L211.887 237.898" stroke="#F6F6F6" stroke-width="0.6315" stroke-miterlimit="10" stroke-linecap="round"/>
<path opacity="0.99" d="M189.672 238.63L210.492 250.204" stroke="#F6F6F6" stroke-width="0.6315" stroke-miterlimit="10" stroke-linecap="round"/>
<path opacity="0.99" d="M184.117 248.623L200.776 257.884" stroke="#F6F6F6" stroke-width="0.6315" stroke-miterlimit="10" stroke-linecap="round"/>
<path opacity="0.99" d="M178.562 258.616L195.22 267.87" stroke="#F6F6F6" stroke-width="0.6315" stroke-miterlimit="10" stroke-linecap="round"/>
<path opacity="0.99" d="M173.006 268.609L189.665 277.863" stroke="#F6F6F6" stroke-width="0.6315" stroke-miterlimit="10" stroke-linecap="round"/>
<path opacity="0.99" d="M167.451 278.603L184.109 287.856" stroke="#F6F6F6" stroke-width="0.6315" stroke-miterlimit="10" stroke-linecap="round"/>
<path opacity="0.99" d="M161.895 288.596L182.715 300.162" stroke="#F6F6F6" stroke-width="0.6315" stroke-miterlimit="10" stroke-linecap="round"/>
<path opacity="0.99" d="M156.34 298.59L172.998 307.843" stroke="#F6F6F6" stroke-width="0.6315" stroke-miterlimit="10" stroke-linecap="round"/>
<path opacity="0.99" d="M150.784 308.583L167.443 317.836" stroke="#F6F6F6" stroke-width="0.6315" stroke-miterlimit="10" stroke-linecap="round"/>
<path opacity="0.99" d="M145.229 318.568L161.887 327.829" stroke="#F6F6F6" stroke-width="0.6315" stroke-miterlimit="10" stroke-linecap="round"/>
<path opacity="0.99" d="M139.673 328.562L160.493 340.136" stroke="#F6F6F6" stroke-width="0.6315" stroke-miterlimit="10" stroke-linecap="round"/>
<path opacity="0.99" d="M134.118 338.555L150.777 347.808" stroke="#F6F6F6" stroke-width="0.6315" stroke-miterlimit="10" stroke-linecap="round"/>
<path opacity="0.99" d="M128.562 348.548L145.221 357.801" stroke="#F6F6F6" stroke-width="0.6315" stroke-miterlimit="10" stroke-linecap="round"/>
<path opacity="0.99" d="M123.007 358.541L139.666 367.794" stroke="#F6F6F6" stroke-width="0.6315" stroke-miterlimit="10" stroke-linecap="round"/>
<path opacity="0.99" d="M117.452 368.534L138.271 380.101" stroke="#F6F6F6" stroke-width="0.6315" stroke-miterlimit="10" stroke-linecap="round"/>
<path opacity="0.99" d="M111.896 378.527L128.555 387.781" stroke="#F6F6F6" stroke-width="0.6315" stroke-miterlimit="10" stroke-linecap="round"/>
<path opacity="0.99" d="M106.341 388.521L122.999 397.774" stroke="#F6F6F6" stroke-width="0.6315" stroke-miterlimit="10" stroke-linecap="round"/>
<path opacity="0.99" d="M100.785 398.506L117.444 407.767" stroke="#F6F6F6" stroke-width="0.6315" stroke-miterlimit="10" stroke-linecap="round"/>
<path opacity="0.99" d="M95.2297 408.499L116.057 420.073" stroke="#F6F6F6" stroke-width="0.6315" stroke-miterlimit="10" stroke-linecap="round"/>
<path opacity="0.99" d="M89.6743 418.492L106.333 427.753" stroke="#F6F6F6" stroke-width="0.6315" stroke-miterlimit="10" stroke-linecap="round"/>
<path opacity="0.99" d="M84.1189 428.486L100.777 437.739" stroke="#F6F6F6" stroke-width="0.6315" stroke-miterlimit="10" stroke-linecap="round"/>
<path opacity="0.99" d="M78.5634 438.479L95.2219 447.732" stroke="#F6F6F6" stroke-width="0.6315" stroke-miterlimit="10" stroke-linecap="round"/>
<path opacity="0.99" d="M73.0079 448.472L93.835 460.039" stroke="#F6F6F6" stroke-width="0.6315" stroke-miterlimit="10" stroke-linecap="round"/>
<path opacity="0.8" d="M313.194 353.795V331.262H202.108V354.286C202.108 359.473 199.747 364.38 195.696 367.621L175.227 383.993C170.279 387.95 167.396 393.947 167.396 400.287V606.017C167.396 615.262 174.892 622.755 184.141 622.755H334.637C343.885 622.755 351.381 615.262 351.381 606.017V400.872C351.381 394.196 348.186 387.926 342.787 383.993L320.23 367.597C315.812 364.388 313.194 359.255 313.194 353.795Z" fill="#F6F6F6"/>
<path d="M333.39 601.936H185.387C181.203 601.936 177.806 598.54 177.806 594.357V400.662H340.963V594.357C340.971 598.54 337.574 601.936 333.39 601.936Z" fill="#40E2D9"/>
<g opacity="0.51">
<path opacity="0.51" d="M233.185 423.708C234.413 416.141 229.273 409.011 221.704 407.783C214.134 406.555 207.002 411.694 205.774 419.261C204.545 426.827 209.686 433.957 217.255 435.185C224.824 436.413 231.956 431.274 233.185 423.708Z" fill="#15CEBC"/>
<path opacity="0.51" d="M316.062 476.411C321.485 470.99 321.485 462.202 316.062 456.782C310.64 451.361 301.849 451.361 296.426 456.782C291.004 462.202 291.004 470.99 296.426 476.411C301.849 481.831 310.64 481.831 316.062 476.411Z" fill="#15CEBC"/>
<path opacity="0.51" d="M236.82 549.882C244.488 549.882 250.705 543.668 250.705 536.002C250.705 528.336 244.488 522.122 236.82 522.122C229.152 522.122 222.935 528.336 222.935 536.002C222.935 543.668 229.152 549.882 236.82 549.882Z" fill="#15CEBC"/>
<path opacity="0.51" d="M275.007 532.528C282.675 532.528 288.892 526.314 288.892 518.648C288.892 510.983 282.675 504.769 275.007 504.769C267.339 504.769 261.122 510.983 261.122 518.648C261.122 526.314 267.339 532.528 275.007 532.528Z" fill="#15CEBC"/>
<path opacity="0.51" d="M259.385 456.181C262.259 456.181 264.59 453.852 264.59 450.978C264.59 448.104 262.259 445.775 259.385 445.775C256.51 445.775 254.18 448.104 254.18 450.978C254.18 453.852 256.51 456.181 259.385 456.181Z" fill="#15CEBC"/>
<path opacity="0.51" d="M207.313 480.475C210.188 480.475 212.518 478.145 212.518 475.272C212.518 472.398 210.188 470.069 207.313 470.069C204.438 470.069 202.108 472.398 202.108 475.272C202.108 478.145 204.438 480.475 207.313 480.475Z" fill="#15CEBC"/>
<path opacity="0.51" d="M313.194 555.085C313.194 557.959 310.864 560.288 307.989 560.288C305.114 560.288 302.784 557.959 302.784 555.085C302.784 552.211 305.114 549.882 307.989 549.882C310.864 549.882 313.194 552.211 313.194 555.085Z" fill="#15CEBC"/>
<path opacity="0.51" d="M281.949 579.379C281.949 582.253 279.62 584.582 276.745 584.582C273.869 584.582 271.54 582.253 271.54 579.379C271.54 576.505 273.869 574.176 276.745 574.176C279.62 574.176 281.949 576.505 281.949 579.379Z" fill="#15CEBC"/>
<path opacity="0.51" d="M254.18 593.259C254.18 596.133 251.85 598.462 248.975 598.462C246.1 598.462 243.77 596.133 243.77 593.259C243.77 590.385 246.1 588.056 248.975 588.056C251.85 588.056 254.18 590.385 254.18 593.259Z" fill="#15CEBC"/>
<path opacity="0.51" d="M233.353 577.642C233.353 583.39 228.693 588.056 222.935 588.056C217.185 588.056 212.518 583.398 212.518 577.642C212.518 571.894 217.177 567.228 222.935 567.228C228.693 567.236 233.353 571.894 233.353 577.642Z" fill="#15CEBC"/>
<path opacity="0.51" d="M235.09 511.708C237.965 511.708 240.295 509.379 240.295 506.505C240.295 503.632 237.965 501.302 235.09 501.302C232.216 501.302 229.885 503.632 229.885 506.505C229.885 509.379 232.216 511.708 235.09 511.708Z" fill="#15CEBC"/>
<path opacity="0.51" d="M297.572 438.835C300.446 438.835 302.777 436.506 302.777 433.632C302.777 430.759 300.446 428.429 297.572 428.429C294.697 428.429 292.367 430.759 292.367 433.632C292.367 436.506 294.697 438.835 297.572 438.835Z" fill="#15CEBC"/>
<path opacity="0.51" d="M330.554 416.278C330.554 419.152 328.224 421.481 325.349 421.481C322.474 421.481 320.144 419.152 320.144 416.278C320.144 413.404 322.474 411.075 325.349 411.075C328.224 411.075 330.554 413.404 330.554 416.278Z" fill="#15CEBC"/>
</g>
<path d="M313.028 563.341H201.008C199.348 563.341 198 561.993 198 560.334V431.007C198 429.347 199.348 428 201.008 428H313.028C314.688 428 316.036 429.347 316.036 431.007V560.342C316.036 561.993 314.688 563.341 313.028 563.341Z" fill="#F6F6F6"/>
<path d="M304.65 463.859H209.934V492.266H304.65V463.859Z" fill="#2F4260"/>
<path d="M223.635 487.629C222.2 487.629 220.899 487.32 219.733 486.703C218.579 486.073 217.667 485.208 216.997 484.108C216.34 482.995 216.011 481.741 216.011 480.346C216.011 478.952 216.34 477.704 216.997 476.605C217.667 475.492 218.579 474.627 219.733 474.01C220.899 473.379 222.207 473.064 223.655 473.064C224.876 473.064 225.975 473.279 226.954 473.708C227.947 474.137 228.778 474.754 229.449 475.559L227.357 477.49C226.405 476.39 225.224 475.84 223.816 475.84C222.945 475.84 222.167 476.035 221.483 476.424C220.799 476.799 220.262 477.329 219.873 478.013C219.498 478.697 219.31 479.475 219.31 480.346C219.31 481.218 219.498 481.996 219.873 482.68C220.262 483.364 220.799 483.9 221.483 484.289C222.167 484.665 222.945 484.853 223.816 484.853C225.224 484.853 226.405 484.296 227.357 483.183L229.449 485.114C228.778 485.932 227.947 486.556 226.954 486.985C225.962 487.414 224.856 487.629 223.635 487.629ZM238.174 487.629C236.713 487.629 235.392 487.313 234.212 486.683C233.045 486.053 232.126 485.188 231.456 484.088C230.798 482.975 230.47 481.728 230.47 480.346C230.47 478.965 230.798 477.725 231.456 476.625C232.126 475.512 233.045 474.64 234.212 474.01C235.392 473.379 236.713 473.064 238.174 473.064C239.636 473.064 240.951 473.379 242.117 474.01C243.284 474.64 244.203 475.512 244.873 476.625C245.544 477.725 245.879 478.965 245.879 480.346C245.879 481.728 245.544 482.975 244.873 484.088C244.203 485.188 243.284 486.053 242.117 486.683C240.951 487.313 239.636 487.629 238.174 487.629ZM238.174 484.853C239.006 484.853 239.757 484.665 240.428 484.289C241.098 483.9 241.621 483.364 241.997 482.68C242.386 481.996 242.58 481.218 242.58 480.346C242.58 479.475 242.386 478.697 241.997 478.013C241.621 477.329 241.098 476.799 240.428 476.424C239.757 476.035 239.006 475.84 238.174 475.84C237.343 475.84 236.592 476.035 235.921 476.424C235.251 476.799 234.721 477.329 234.332 478.013C233.957 478.697 233.769 479.475 233.769 480.346C233.769 481.218 233.957 481.996 234.332 482.68C234.721 483.364 235.251 483.9 235.921 484.289C236.592 484.665 237.343 484.853 238.174 484.853ZM261.395 473.306L255.3 487.387H252.081L246.006 473.306H249.526L253.811 483.364L258.156 473.306H261.395ZM262.571 473.306H265.83V487.387H262.571V473.306ZM269.172 473.306H275.569C277.098 473.306 278.445 473.601 279.612 474.191C280.792 474.767 281.704 475.586 282.348 476.645C283.005 477.704 283.334 478.938 283.334 480.346C283.334 481.755 283.005 482.988 282.348 484.048C281.704 485.107 280.792 485.932 279.612 486.522C278.445 487.099 277.098 487.387 275.569 487.387H269.172V473.306ZM275.408 484.712C276.816 484.712 277.936 484.323 278.767 483.545C279.612 482.754 280.035 481.688 280.035 480.346C280.035 479.005 279.612 477.946 278.767 477.168C277.936 476.377 276.816 475.981 275.408 475.981H272.431V484.712H275.408ZM221.443 498.306V512.387H218.184V500.921H215.367V498.306H221.443ZM228.837 498.064C230.809 498.064 232.351 498.668 233.464 499.875C234.577 501.068 235.134 502.792 235.134 505.045C235.134 506.641 234.832 508.009 234.229 509.148C233.639 510.288 232.8 511.153 231.714 511.743C230.628 512.334 229.374 512.629 227.952 512.629C227.201 512.629 226.484 512.548 225.8 512.387C225.116 512.213 224.532 511.971 224.05 511.663L225.257 509.269C225.941 509.739 226.819 509.973 227.892 509.973C229.086 509.973 230.031 509.625 230.728 508.927C231.426 508.216 231.801 507.197 231.855 505.869C231.01 506.714 229.843 507.137 228.355 507.137C227.456 507.137 226.638 506.956 225.9 506.594C225.163 506.232 224.579 505.722 224.15 505.065C223.721 504.394 223.507 503.623 223.507 502.751C223.507 501.813 223.741 500.988 224.211 500.277C224.68 499.566 225.317 499.023 226.122 498.648C226.94 498.259 227.845 498.064 228.837 498.064ZM229.079 504.703C229.79 504.703 230.366 504.508 230.809 504.119C231.265 503.717 231.493 503.207 231.493 502.59C231.493 501.974 231.272 501.471 230.829 501.082C230.4 500.693 229.803 500.498 229.039 500.498C228.341 500.498 227.771 500.686 227.329 501.062C226.9 501.437 226.685 501.947 226.685 502.59C226.685 503.234 226.9 503.751 227.329 504.139C227.771 504.515 228.355 504.703 229.079 504.703Z" fill="#F6F6F6"/>
<path d="M226.144 508.567L218.872 525.367H215.032L207.784 508.567H211.984L217.096 520.567L222.28 508.567H226.144ZM231.53 512.263C233.53 512.263 235.066 512.743 236.138 513.703C237.21 514.647 237.746 516.079 237.746 517.999V525.367H234.242V523.759C233.538 524.959 232.226 525.559 230.306 525.559C229.314 525.559 228.45 525.391 227.714 525.055C226.994 524.719 226.442 524.255 226.058 523.663C225.674 523.071 225.482 522.399 225.482 521.647C225.482 520.447 225.93 519.503 226.826 518.815C227.738 518.127 229.138 517.783 231.026 517.783H234.002C234.002 516.967 233.754 516.343 233.258 515.911C232.762 515.463 232.018 515.239 231.026 515.239C230.338 515.239 229.658 515.351 228.986 515.575C228.33 515.783 227.77 516.071 227.306 516.439L225.962 513.823C226.666 513.327 227.506 512.943 228.482 512.671C229.474 512.399 230.49 512.263 231.53 512.263ZM231.242 523.039C231.882 523.039 232.45 522.895 232.946 522.607C233.442 522.303 233.794 521.863 234.002 521.287V519.967H231.434C229.898 519.967 229.13 520.471 229.13 521.479C229.13 521.959 229.314 522.343 229.682 522.631C230.066 522.903 230.586 523.039 231.242 523.039ZM247.515 525.559C246.139 525.559 244.899 525.279 243.795 524.719C242.707 524.143 241.851 523.351 241.227 522.343C240.619 521.335 240.315 520.191 240.315 518.911C240.315 517.631 240.619 516.487 241.227 515.479C241.851 514.471 242.707 513.687 243.795 513.127C244.899 512.551 246.139 512.263 247.515 512.263C248.875 512.263 250.059 512.551 251.067 513.127C252.091 513.687 252.835 514.495 253.299 515.551L250.395 517.111C249.723 515.927 248.755 515.335 247.491 515.335C246.515 515.335 245.707 515.655 245.067 516.295C244.427 516.935 244.107 517.807 244.107 518.911C244.107 520.015 244.427 520.887 245.067 521.527C245.707 522.167 246.515 522.487 247.491 522.487C248.771 522.487 249.739 521.895 250.395 520.711L253.299 522.295C252.835 523.319 252.091 524.119 251.067 524.695C250.059 525.271 248.875 525.559 247.515 525.559ZM261.531 525.559C260.155 525.559 258.915 525.279 257.811 524.719C256.723 524.143 255.867 523.351 255.243 522.343C254.635 521.335 254.331 520.191 254.331 518.911C254.331 517.631 254.635 516.487 255.243 515.479C255.867 514.471 256.723 513.687 257.811 513.127C258.915 512.551 260.155 512.263 261.531 512.263C262.891 512.263 264.075 512.551 265.083 513.127C266.107 513.687 266.851 514.495 267.315 515.551L264.411 517.111C263.739 515.927 262.771 515.335 261.507 515.335C260.531 515.335 259.723 515.655 259.083 516.295C258.443 516.935 258.123 517.807 258.123 518.911C258.123 520.015 258.443 520.887 259.083 521.527C259.723 522.167 260.531 522.487 261.507 522.487C262.787 522.487 263.755 521.895 264.411 520.711L267.315 522.295C266.851 523.319 266.107 524.119 265.083 524.695C264.075 525.271 262.891 525.559 261.531 525.559ZM269.47 512.455H273.214V525.367H269.47V512.455ZM271.342 510.655C270.654 510.655 270.094 510.455 269.662 510.055C269.23 509.655 269.014 509.159 269.014 508.567C269.014 507.975 269.23 507.479 269.662 507.079C270.094 506.679 270.654 506.479 271.342 506.479C272.03 506.479 272.59 506.671 273.022 507.055C273.454 507.439 273.67 507.919 273.67 508.495C273.67 509.119 273.454 509.639 273.022 510.055C272.59 510.455 272.03 510.655 271.342 510.655ZM284.537 512.263C286.137 512.263 287.425 512.743 288.401 513.703C289.393 514.663 289.889 516.087 289.889 517.975V525.367H286.145V518.551C286.145 517.527 285.921 516.767 285.473 516.271C285.025 515.759 284.377 515.503 283.529 515.503C282.585 515.503 281.833 515.799 281.273 516.391C280.713 516.967 280.433 517.831 280.433 518.983V525.367H276.689V512.455H280.265V513.967C280.761 513.423 281.377 513.007 282.113 512.719C282.849 512.415 283.657 512.263 284.537 512.263ZM306.071 518.959C306.071 519.007 306.047 519.343 305.999 519.967H296.231C296.407 520.767 296.823 521.399 297.479 521.863C298.135 522.327 298.951 522.559 299.927 522.559C300.599 522.559 301.191 522.463 301.703 522.271C302.231 522.063 302.719 521.743 303.167 521.311L305.159 523.471C303.943 524.863 302.167 525.559 299.831 525.559C298.375 525.559 297.087 525.279 295.967 524.719C294.847 524.143 293.983 523.351 293.375 522.343C292.767 521.335 292.463 520.191 292.463 518.911C292.463 517.647 292.759 516.511 293.351 515.503C293.959 514.479 294.783 513.687 295.823 513.127C296.879 512.551 298.055 512.263 299.351 512.263C300.615 512.263 301.759 512.535 302.783 513.079C303.807 513.623 304.607 514.407 305.183 515.431C305.775 516.439 306.071 517.615 306.071 518.959ZM299.375 515.095C298.527 515.095 297.815 515.335 297.239 515.815C296.663 516.295 296.311 516.951 296.183 517.783H302.543C302.415 516.967 302.063 516.319 301.487 515.839C300.911 515.343 300.207 515.095 299.375 515.095Z" fill="#2F4260"/>
<path opacity="0.42" d="M342.787 384.001L320.378 367.706C315.867 364.427 313.202 359.185 313.202 353.608V331.254H278.49V354.862C278.49 359.652 280.781 364.154 284.661 366.974L308.083 384.001C313.482 387.926 316.677 394.196 316.677 400.879V606.017C316.677 615.262 309.181 622.755 299.933 622.755H334.644C343.893 622.755 351.389 615.262 351.389 606.017V400.872C351.381 394.196 348.186 387.926 342.787 384.001Z" fill="#CCCCCC"/>
<path opacity="0.63" d="M189.875 384.001L218.502 363.189C219.102 362.752 219.46 362.051 219.46 361.304V331.262H236.82V361.304C236.82 362.051 236.462 362.752 235.862 363.189L207.235 384.001C201.835 387.926 198.641 394.196 198.641 400.872V606.017C198.641 615.262 206.136 622.755 215.385 622.755H198.025C188.777 622.755 181.281 615.262 181.281 606.017V400.872C181.281 394.196 184.476 387.926 189.875 384.001Z" fill="#F6F6F6"/>
<path opacity="0.42" d="M313.194 334.728H202.108V359.021H313.194V334.728Z" fill="#CCCCCC"/>
<path d="M331.722 339.822H187.055C183.868 339.822 181.281 337.236 181.281 334.05V304.164C181.281 300.979 183.868 298.393 187.055 298.393H331.722C334.909 298.393 337.496 300.979 337.496 304.164V334.05C337.496 337.244 334.909 339.822 331.722 339.822Z" fill="#72788F"/>
<path opacity="0.48" d="M325.1 329.416H193.678C186.829 329.416 181.281 323.87 181.281 317.023V327.437C181.281 334.284 186.829 339.829 193.678 339.829H325.1C331.948 339.829 337.496 334.284 337.496 327.437V317.023C337.496 323.862 331.948 329.416 325.1 329.416Z" fill="#72788F"/>
<path opacity="0.48" d="M314.682 298.393H276.495C283.344 298.393 288.892 303.938 288.892 310.785V327.43C288.892 334.276 283.344 339.822 276.495 339.822H314.682C321.531 339.822 327.079 334.276 327.079 327.43V310.785C327.079 303.946 321.531 298.393 314.682 298.393Z" fill="#72788F"/>
<path opacity="0.48" d="M217.481 327.43V310.785C217.481 303.938 223.029 298.393 229.878 298.393H209.05C202.202 298.393 196.654 303.938 196.654 310.785V327.43C196.654 334.276 202.202 339.822 209.05 339.822H229.878C223.037 339.822 217.481 334.276 217.481 327.43Z" fill="#72788F"/>
</g>
<defs>
<clipPath id="clip0_44_873">
<rect width="374" height="620" fill="white"/>
</clipPath>
</defs>
</svg>
