<svg width="296" height="73" viewBox="0 0 296 73" fill="none" xmlns="http://www.w3.org/2000/svg">
<path d="M55.7114 18.945C51.6037 14.8394 44.9273 14.8394 40.8196 18.945L17.241 42.4995C13.1334 46.6051 13.1334 53.2782 17.241 57.3838C21.3487 61.4894 28.0251 61.4894 32.1328 57.3838L55.6989 33.8293C59.819 29.7237 59.819 23.063 55.7114 18.945Z" fill="#A4C9FF"/>
<path d="M56.4892 3.28023L71.3891 18.1727L74.6709 14.8925L59.771 2.6342e-05L56.4892 3.28023Z" fill="#002672"/>
<path d="M59.7445 22.9885L60.4891 19.6271L66.6692 13.4501L61.2089 7.9801L55.0288 14.1571L51.6658 14.9013L59.7445 22.9885Z" fill="#022D90"/>
<path d="M43.9221 45.6128L27.5908 61.9359C25.99 63.536 23.3839 63.536 21.783 61.9359L12.6991 52.8565C11.0982 51.2564 11.0982 48.6516 12.6991 47.0516L29.0304 30.7284L43.9221 45.6128Z" fill="#022D90"/>
<path d="M60.2534 23.4847L51.1694 14.4053C50.3628 13.599 49.3203 13.2021 48.2655 13.2021C47.2107 13.2021 46.1682 13.599 45.3616 14.4053L12.699 47.0392C11.0982 48.6393 11.0982 51.2441 12.699 52.8441L16.5461 56.6893L1.91493 71.3131C1.53023 71.6976 1.53023 72.3302 1.91493 72.7147C2.11349 72.9132 2.36168 73 2.62229 73C2.87049 73 3.13109 72.9008 3.32965 72.7147L17.9484 58.0909L21.7954 61.936C22.6021 62.7422 23.6445 63.1391 24.6993 63.1391C25.7541 63.1391 26.7966 62.7422 27.6032 61.936L32.6788 56.8629L34.0811 55.4613L60.2658 29.2896C61.8542 27.6896 61.8542 25.0972 60.2534 23.4847ZM58.8386 27.888L57.1013 29.6245L51.0577 23.584L49.6554 24.9856L55.699 31.0261L53.4652 33.2588L51.1446 30.9393L49.7423 32.3409L52.0629 34.6604L50.1642 36.5582L44.1206 30.5176L42.7183 31.9192L48.7619 37.9598L46.5405 40.18L44.2199 37.8605L42.8176 39.2622L45.1382 41.5816L43.2395 43.4794L37.196 37.4388L35.7937 38.8404L41.8372 44.881L39.6159 47.1012L37.2952 44.7818L35.8929 46.1834L38.2136 48.5029L35.9922 50.7231L29.9487 44.6825L28.5463 46.0841L34.5899 52.1247L32.6912 54.0225L30.3706 51.703L28.9683 53.1046L31.2889 55.4241L29.3654 57.3466L23.3218 51.3061L21.9195 52.7077L27.9631 58.7483L26.2133 60.4972C25.8162 60.8941 25.2826 61.1173 24.7117 61.1173C24.1409 61.1173 23.6197 60.8941 23.2101 60.4972L14.1262 51.4177C13.2947 50.5867 13.2947 49.2471 14.1262 48.4284L46.7763 15.7945C47.1734 15.3976 47.7071 15.1743 48.2779 15.1743C48.8488 15.1743 49.37 15.3976 49.7795 15.7945L58.8635 24.8739C59.2606 25.2708 59.484 25.8042 59.484 26.3748C59.484 26.9453 59.2482 27.4911 58.8386 27.888Z" fill="white"/>
<path d="M105.256 23.8318L97.649 44.5589H92.5978L84.9913 23.8318H89.4482L95.1531 40.3125L100.828 23.8318H105.256Z" fill="#022D90"/>
<path d="M106.68 36.274C106.68 34.6111 107.007 33.1362 107.66 31.8495C108.334 30.5627 109.235 29.5728 110.364 28.88C111.513 28.1871 112.791 27.8406 114.197 27.8406C115.425 27.8406 116.495 28.0881 117.406 28.583C118.337 29.0779 119.08 29.7015 119.635 30.4538V28.1079H123.824V44.5589H119.635V42.1536C119.1 42.9257 118.357 43.569 117.406 44.0838C116.475 44.5787 115.396 44.8261 114.168 44.8261C112.781 44.8261 111.513 44.4698 110.364 43.7571C109.235 43.0444 108.334 42.0447 107.66 40.7579C107.007 39.4514 106.68 37.9567 106.68 36.274ZM119.635 36.3334C119.635 35.3238 119.437 34.4626 119.041 33.7499C118.644 33.0175 118.11 32.4631 117.436 32.087C116.763 31.6911 116.04 31.4931 115.267 31.4931C114.494 31.4931 113.781 31.6812 113.128 32.0573C112.474 32.4335 111.939 32.9878 111.523 33.7202C111.127 34.4329 110.929 35.2842 110.929 36.274C110.929 37.2638 111.127 38.1349 111.523 38.8871C111.939 39.6196 112.474 40.1838 113.128 40.5798C113.801 40.9757 114.514 41.1737 115.267 41.1737C116.04 41.1737 116.763 40.9856 117.436 40.6095C118.11 40.2135 118.644 39.6592 119.041 38.9465C119.437 38.2141 119.635 37.343 119.635 36.3334Z" fill="#022D90"/>
<path d="M126.818 36.3334C126.818 34.6309 127.164 33.1461 127.857 31.8791C128.551 30.5924 129.511 29.6025 130.74 28.9097C131.968 28.197 133.374 27.8406 134.959 27.8406C136.999 27.8406 138.683 28.3554 140.01 29.3848C141.357 30.3944 142.258 31.8198 142.714 33.6608H138.227C137.99 32.9482 137.584 32.3939 137.009 31.9979C136.454 31.5822 135.761 31.3743 134.929 31.3743C133.741 31.3743 132.8 31.8099 132.106 32.6809C131.413 33.5322 131.066 34.7497 131.066 36.3334C131.066 37.8973 131.413 39.1148 132.106 39.9859C132.8 40.8371 133.741 41.2627 134.929 41.2627C136.613 41.2627 137.712 40.5105 138.227 39.0059H142.714C142.258 40.7876 141.357 42.2031 140.01 43.2523C138.663 44.3015 136.979 44.8261 134.959 44.8261C133.374 44.8261 131.968 44.4797 130.74 43.7868C129.511 43.0741 128.551 42.0843 127.857 40.8173C127.164 39.5305 126.818 38.0359 126.818 36.3334Z" fill="#022D90"/>
<path d="M147.871 26.148C147.138 26.148 146.524 25.9204 146.029 25.465C145.553 24.9899 145.316 24.4059 145.316 23.713C145.316 23.0202 145.553 22.4461 146.029 21.9907C146.524 21.5156 147.138 21.2781 147.871 21.2781C148.604 21.2781 149.208 21.5156 149.684 21.9907C150.179 22.4461 150.426 23.0202 150.426 23.713C150.426 24.4059 150.179 24.9899 149.684 25.465C149.208 25.9204 148.604 26.148 147.871 26.148ZM149.921 28.1079V44.5589H145.761V28.1079H149.921Z" fill="#022D90"/>
<path d="M163.153 27.8703C165.114 27.8703 166.699 28.4939 167.907 29.7411C169.115 30.9685 169.72 32.6908 169.72 34.908V44.5589H165.56V35.4722C165.56 34.1657 165.233 33.1659 164.579 32.473C163.926 31.7604 163.034 31.404 161.905 31.404C160.756 31.404 159.845 31.7604 159.172 32.473C158.518 33.1659 158.191 34.1657 158.191 35.4722V44.5589H154.031V28.1079H158.191V30.1568C158.746 29.4442 159.449 28.8899 160.301 28.4939C161.172 28.0782 162.123 27.8703 163.153 27.8703Z" fill="#022D90"/>
<path d="M172.606 36.274C172.606 34.6111 172.933 33.1362 173.586 31.8495C174.26 30.5627 175.161 29.5728 176.29 28.88C177.439 28.1871 178.717 27.8406 180.123 27.8406C181.351 27.8406 182.421 28.0881 183.332 28.583C184.263 29.0779 185.006 29.7015 185.561 30.4538V28.1079H189.75V44.5589H185.561V42.1536C185.026 42.9257 184.283 43.569 183.332 44.0838C182.401 44.5787 181.322 44.8261 180.093 44.8261C178.707 44.8261 177.439 44.4698 176.29 43.7571C175.161 43.0444 174.26 42.0447 173.586 40.7579C172.933 39.4514 172.606 37.9567 172.606 36.274ZM185.561 36.3334C185.561 35.3238 185.363 34.4626 184.966 33.7499C184.57 33.0175 184.035 32.4631 183.362 32.087C182.688 31.6911 181.965 31.4931 181.193 31.4931C180.42 31.4931 179.707 31.6812 179.054 32.0573C178.4 32.4335 177.865 32.9878 177.449 33.7202C177.053 34.4329 176.855 35.2842 176.855 36.274C176.855 37.2638 177.053 38.1349 177.449 38.8871C177.865 39.6196 178.4 40.1838 179.054 40.5798C179.727 40.9757 180.44 41.1737 181.193 41.1737C181.965 41.1737 182.688 40.9856 183.362 40.6095C184.035 40.2135 184.57 39.6592 184.966 38.9465C185.363 38.2141 185.561 37.343 185.561 36.3334Z" fill="#022D90"/>
<path d="M200.855 41.2627C202.539 41.2627 203.638 40.5105 204.153 39.0059H208.64C208.224 40.6095 207.451 41.916 206.322 42.9257C205.213 43.9353 203.816 44.5391 202.133 44.737V45.8951C203.222 45.8951 204.133 46.1723 204.866 46.7266C205.619 47.2809 205.995 48.0827 205.995 49.1319C205.995 50.2009 205.609 51.0225 204.837 51.5966C204.084 52.1707 203.153 52.4577 202.044 52.4577H197.824V50.0227H201.36C201.836 50.0227 202.192 49.9535 202.43 49.8149C202.687 49.6763 202.816 49.4288 202.816 49.0725C202.816 48.7162 202.687 48.4687 202.43 48.3301C202.192 48.2114 201.836 48.152 201.36 48.152H199.518V44.737C198.171 44.5391 196.982 44.0739 195.952 43.3414C194.942 42.5891 194.15 41.6191 193.575 40.4313C193.021 39.2237 192.743 37.8577 192.743 36.3334C192.743 34.6309 193.09 33.1461 193.783 31.8791C194.477 30.5924 195.437 29.6025 196.665 28.9097C197.894 28.197 199.3 27.8406 200.885 27.8406C202.925 27.8406 204.609 28.3554 205.936 29.3848C207.283 30.3944 208.184 31.8198 208.64 33.6608H204.153C203.915 32.9482 203.509 32.3939 202.935 31.9979C202.38 31.5822 201.687 31.3743 200.855 31.3743C199.666 31.3743 198.726 31.8099 198.032 32.6809C197.339 33.5322 196.992 34.7497 196.992 36.3334C196.992 37.8973 197.339 39.1148 198.032 39.9859C198.726 40.8371 199.666 41.2627 200.855 41.2627Z" fill="#022D90"/>
<path d="M210.618 36.274C210.618 34.6111 210.944 33.1362 211.598 31.8495C212.272 30.5627 213.173 29.5728 214.302 28.88C215.451 28.1871 216.729 27.8406 218.135 27.8406C219.363 27.8406 220.433 28.0881 221.344 28.583C222.275 29.0779 223.018 29.7015 223.572 30.4538V28.1079H227.762V44.5589H223.572V42.1536C223.038 42.9257 222.295 43.569 221.344 44.0838C220.413 44.5787 219.333 44.8261 218.105 44.8261C216.719 44.8261 215.451 44.4698 214.302 43.7571C213.173 43.0444 212.272 42.0447 211.598 40.7579C210.944 39.4514 210.618 37.9567 210.618 36.274ZM223.572 36.3334C223.572 35.3238 223.374 34.4626 222.978 33.7499C222.582 33.0175 222.047 32.4631 221.374 32.087C220.7 31.6911 219.977 31.4931 219.205 31.4931C218.432 31.4931 217.719 31.6812 217.065 32.0573C216.412 32.4335 215.877 32.9878 215.461 33.7202C215.065 34.4329 214.867 35.2842 214.867 36.274C214.867 37.2638 215.065 38.1349 215.461 38.8871C215.877 39.6196 216.412 40.1838 217.065 40.5798C217.739 40.9757 218.452 41.1737 219.205 41.1737C219.977 41.1737 220.7 40.9856 221.374 40.6095C222.047 40.2135 222.582 39.6592 222.978 38.9465C223.374 38.2141 223.572 37.343 223.572 36.3334ZM214.421 26.5341C214.599 25.2275 215.005 24.2575 215.639 23.624C216.293 22.9707 217.115 22.644 218.105 22.644C218.521 22.644 218.888 22.7133 219.205 22.8519C219.522 22.9707 219.878 23.1488 220.274 23.3864C220.869 23.7625 221.364 23.9506 221.76 23.9506C222.493 23.9506 222.919 23.525 223.038 22.6737H225.266C225.088 23.9803 224.672 24.9602 224.018 25.6135C223.384 26.247 222.572 26.5638 221.582 26.5638C221.166 26.5638 220.799 26.5044 220.482 26.3856C220.165 26.247 219.809 26.0589 219.413 25.8214C218.838 25.4255 218.343 25.2275 217.927 25.2275C217.194 25.2275 216.758 25.663 216.62 26.5341H214.421Z" fill="#022D90"/>
<path d="M239.134 44.8261C237.55 44.8261 236.123 44.4797 234.856 43.7868C233.588 43.0741 232.587 42.0744 231.855 40.7876C231.141 39.5008 230.785 38.0161 230.785 36.3334C230.785 34.6507 231.151 33.1659 231.884 31.8791C232.637 30.5924 233.657 29.6025 234.945 28.9097C236.232 28.197 237.668 27.8406 239.253 27.8406C240.838 27.8406 242.274 28.197 243.561 28.9097C244.849 29.6025 245.859 30.5924 246.592 31.8791C247.345 33.1659 247.721 34.6507 247.721 36.3334C247.721 38.0161 247.335 39.5008 246.562 40.7876C245.81 42.0744 244.78 43.0741 243.472 43.7868C242.185 44.4797 240.739 44.8261 239.134 44.8261ZM239.134 41.2034C239.887 41.2034 240.59 41.0252 241.244 40.6688C241.917 40.2927 242.452 39.7384 242.848 39.0059C243.245 38.2735 243.443 37.3826 243.443 36.3334C243.443 34.7695 243.027 33.5718 242.195 32.7403C241.383 31.889 240.382 31.4634 239.194 31.4634C238.005 31.4634 237.005 31.889 236.193 32.7403C235.4 33.5718 235.004 34.7695 235.004 36.3334C235.004 37.8973 235.39 39.1049 236.163 39.9562C236.955 40.7876 237.946 41.2034 239.134 41.2034Z" fill="#022D90"/>
<path d="M264.262 23.624V37.4915C264.262 39.8473 263.619 41.6488 262.331 42.896C261.063 44.1431 259.31 44.7667 257.072 44.7667C254.695 44.7667 252.793 44.1036 251.367 42.7772C249.961 41.4508 249.257 39.5404 249.257 37.0461H255.022C255.041 38.6892 255.646 39.5107 256.834 39.5107C257.904 39.5107 258.439 38.8377 258.439 37.4915V23.624H264.262Z" fill="#022D90"/>
<path d="M266.788 36.2146C266.788 34.4923 267.095 32.9878 267.709 31.701C268.343 30.4142 269.194 29.4244 270.264 28.7315C271.353 28.0386 272.562 27.6922 273.889 27.6922C275.038 27.6922 276.028 27.9198 276.86 28.3751C277.692 28.8305 278.336 29.4442 278.792 30.2162V27.9H284.615V44.5589H278.792V42.2427C278.336 43.0147 277.682 43.6284 276.831 44.0838C275.999 44.5391 275.018 44.7667 273.889 44.7667C272.562 44.7667 271.353 44.4203 270.264 43.7274C269.194 43.0345 268.343 42.0447 267.709 40.7579C267.095 39.4514 266.788 37.9369 266.788 36.2146ZM278.792 36.2146C278.792 35.1456 278.495 34.3042 277.9 33.6905C277.326 33.0768 276.613 32.77 275.761 32.77C274.889 32.77 274.166 33.0768 273.592 33.6905C273.017 34.2844 272.73 35.1258 272.73 36.2146C272.73 37.2836 273.017 38.1349 273.592 38.7684C274.166 39.3821 274.889 39.6889 275.761 39.6889C276.613 39.6889 277.326 39.3821 277.9 38.7684C278.495 38.1547 278.792 37.3034 278.792 36.2146ZM279.95 23.8615L272.522 26.7716V22.8222L279.95 19.4667V23.8615Z" fill="#022D90"/>
</svg>
